<svg xmlns:xlink="http://www.w3.org/1999/xlink" xmlns="http://www.w3.org/2000/svg" width="685" height="263" viewBox="0 0 685 263" fill="none">
<g clip-path="url(#clip0_1565_10984)">
<path d="M78.9388 78.9388H131.557V105.26H157.878V131.581H184.199V236.816H157.878V263.138H26.321V26.3211H0V0H78.9388V78.9388ZM105.26 105.26H78.9388V236.816H131.557V131.581H105.236V105.26H105.26Z" fill="white"/>
<path d="M184.174 0H289.41V26.3211H263.089V236.816H289.41V263.138H184.174V236.816H210.495V26.3211H184.174V0Z" fill="white"/>
<path d="M420.966 26.321H368.349V52.6421H342.028V210.52H368.349V236.841H420.966V263.162H342.028V236.841H315.707V210.52H289.386V52.6178H315.707V26.2967H342.028V0H447.263V26.321H473.584V78.9388H447.263V52.6178H420.942V26.2967L420.966 26.321ZM368.349 131.557H473.584V263.113H447.263V236.792H420.942V157.853H368.324V131.532L368.349 131.557Z" fill="white"/>
<path d="M631.462 263.113V157.878H552.523V263.113H499.905V78.9388H526.226V52.6178H552.547V26.2967H578.868V0H605.19V26.3211H631.511V52.6421H657.832V78.9632H684.153V263.138H631.535L631.462 263.113ZM605.141 52.6178H578.82V78.9388H552.499V131.557H631.438V78.9388H605.117V52.6178H605.141Z" fill="white"/>
</g>
<defs>
<clipPath id="clip0_1565_10984">
<rect width="684.104" height="263" fill="white"/>
</clipPath>
</defs>
</svg>