<svg width="1289" height="1027" viewBox="0 0 1289 1027" fill="none" xmlns="http://www.w3.org/2000/svg">
<g filter="url(#filter0_f_284_284)">
<path d="M308.777 275.231C380.126 149.735 539.7 105.84 665.197 177.189L1145.31 450.151L966.109 765.35C902.174 877.805 759.182 917.138 646.728 853.203L143 566.816L308.777 275.231Z" fill="url(#paint0_linear_284_284)" fill-opacity="0.82"/>
</g>
<path opacity="0.68" d="M925.424 726.389L907.309 720.819L891.428 715.403M925.424 726.389L914.474 722.49M925.424 726.389L945.059 729.824M891.428 715.403L914.474 722.49M891.428 715.403L871.266 705.84M891.428 715.403L878.431 703.365M914.474 722.49L939.506 726.884M914.474 722.49L905.51 711.72M945.059 729.824L939.506 726.884M945.059 729.824L965.5 731M939.506 726.884L965.5 728.339M939.506 726.884L934.916 716.857M965.5 731V728.339M965.5 731L985.941 729.824M965.5 728.339L991.494 726.884M965.5 728.339V718.59M985.941 729.824L991.494 726.884M985.941 729.824L1005.58 726.389M991.494 726.884L1016.49 722.49M991.494 726.884L996.084 716.857M1005.58 726.389L1016.49 722.49M1005.58 726.389L1023.69 720.819L1039.54 715.403M1016.49 722.49L1039.54 715.403M1016.49 722.49L1025.49 711.72M1039.54 715.403L1052.57 703.365M1039.54 715.403L1059.73 705.84M871.266 705.84L854.671 694.236L835.191 678.453M871.266 705.84L854.671 692.131M835.191 678.453L854.671 692.131M835.191 678.453L820.705 662.856L804.607 640.141M835.191 678.453L820.705 657.502M854.671 692.131L878.431 703.365M854.671 692.131L842.356 672.697M878.431 703.365L905.51 711.72M878.431 703.365L868.753 685.168M905.51 711.72L934.916 716.857M905.51 711.72L898.872 694.421M934.916 716.857L965.5 718.59M934.916 716.857L931.535 700.146M965.5 718.59L996.084 716.857M965.5 718.59V702.065M996.084 716.857L1025.49 711.72M996.084 716.857L999.465 700.146M1025.49 711.72L1052.57 703.365M1025.49 711.72L1032.16 694.421M1052.57 703.365L1076.33 692.131M1052.57 703.365L1062.25 685.168M1059.73 705.84L1076.33 692.131M1059.73 705.84L1076.33 694.236L1095.81 678.453M1076.33 692.131L1095.81 678.453M1076.33 692.131L1088.64 672.697M1095.81 678.453L1110.29 657.502M1095.81 678.453L1110.29 662.856L1126.39 640.141M804.607 640.141L820.705 657.502M804.607 640.141L794.681 621.326L784.165 593.721M804.607 640.141L794.681 613.713M820.705 657.502L842.356 672.697M820.705 657.502L811.772 632.126M842.356 672.697L868.753 685.168M842.356 672.697L834.757 648.249M868.753 685.168L898.872 694.421M868.753 685.168L862.797 661.494M898.872 694.421L931.535 700.146M898.872 694.421L894.747 671.335M931.535 700.146L965.5 702.065M931.535 700.146L929.425 677.401M965.5 702.065L999.465 700.146M965.5 702.065L965.5 679.443M999.465 700.146L1032.16 694.421M999.465 700.146L1001.57 677.401M1032.16 694.421L1062.25 685.168M1032.16 694.421L1036.25 671.335M1062.25 685.168L1088.64 672.697M1062.25 685.168L1068.2 661.494M1088.64 672.697L1110.29 657.502M1088.64 672.697L1096.21 648.249M1110.29 657.502L1126.39 640.141M1110.29 657.502L1119.23 632.126M1126.39 640.141L1136.32 613.713M1126.39 640.141L1136.32 621.326L1146.8 593.721M784.165 593.721L794.681 613.713M784.165 593.721L780.629 572.956L777 543M784.165 593.721L780.629 564.167M794.681 613.713L811.772 632.126M794.681 613.713L791.362 584.561M811.772 632.126L834.757 648.249M811.772 632.126L808.763 603.315M834.757 648.249L862.797 661.494M834.757 648.249L832.213 619.778M862.797 661.494L894.747 671.335M862.797 661.494L860.781 633.271M894.747 671.335L929.425 677.401M894.747 671.335L893.351 643.298M929.425 677.401L965.5 679.443M929.425 677.401L928.712 649.487M965.5 679.443L1001.57 677.401M965.5 679.443L965.5 651.56M1001.57 677.401L1036.25 671.335M1001.57 677.401L1002.26 649.487M1036.25 671.335L1068.2 661.494M1036.25 671.335L1037.62 643.298M1068.2 661.494L1096.21 648.249M1068.2 661.494L1070.22 633.271M1096.21 648.249L1119.23 632.126M1096.21 648.249L1098.79 619.778M1119.23 632.126L1136.32 613.713M1119.23 632.126L1122.24 603.315M1136.32 613.713L1146.8 593.721M1136.32 613.713L1139.64 584.561M1146.8 593.721L1150.37 564.167M1146.8 593.721L1150.37 572.956L1154 543M777 543L780.629 564.167M777 543L780.629 513.044M780.629 564.167L791.362 584.561M780.629 564.167L784.165 533.809M791.362 584.561L808.763 603.315M791.362 584.561L794.681 553.8M808.763 603.315L832.213 619.778M808.763 603.315L811.772 572.214M832.213 619.778L860.781 633.271M832.213 619.778L834.757 588.337M860.781 633.271L893.351 643.298M860.781 633.271L862.797 601.582M893.351 643.298L928.712 649.487M893.351 643.298L894.747 611.423M928.712 649.487L965.5 651.56M928.712 649.487L929.425 617.488M965.5 651.56L1002.26 649.487M965.5 651.56V619.531M1002.26 649.487L1037.62 643.298M1002.26 649.487L1001.57 617.488M1037.62 643.298L1070.22 633.271M1037.62 643.298L1036.25 611.423M1070.22 633.271L1098.79 619.778M1070.22 633.271L1068.2 601.582M1098.79 619.778L1122.24 603.315M1098.79 619.778L1096.21 588.337M1122.24 603.315L1139.64 584.561M1122.24 603.315L1119.23 572.213M1139.64 584.561L1150.37 564.167M1139.64 584.561L1136.32 553.8M1150.37 564.167L1154 543M1150.37 564.167L1146.8 533.809M1154 543L1150.37 513.044M780.629 513.044L784.165 533.809M780.629 513.044L784.165 492.248L794.681 464.674M780.629 513.044L791.362 484.233M784.165 533.809L794.681 553.8M784.165 533.809L794.681 503.822M794.681 553.8L811.772 572.214M794.681 553.8L804.607 522.606M811.772 572.214L834.757 588.337M811.772 572.214L820.705 539.967M834.757 588.337L862.797 601.582M834.757 588.337L842.356 555.162M862.797 601.582L894.747 611.423M862.797 601.582L868.753 567.633M894.747 611.423L929.425 617.488M894.747 611.423L898.872 576.917M929.425 617.488L965.5 619.531M929.425 617.488L931.535 582.612M965.5 619.531L1001.57 617.488M965.5 619.531L965.5 584.561M1001.57 617.488L1036.25 611.423M1001.57 617.488L999.465 582.612M1036.25 611.423L1068.2 601.582M1036.25 611.423L1032.16 576.917M1068.2 601.582L1096.21 588.337M1068.2 601.582L1062.25 567.633M1096.21 588.337L1119.23 572.213M1096.21 588.337L1088.64 555.162M1119.23 572.213L1136.32 553.8M1119.23 572.213L1110.29 539.967M1136.32 553.8L1146.8 533.809M1136.32 553.8L1126.39 522.606M1146.8 533.809L1150.37 513.044M1146.8 533.809L1136.32 503.822M1150.37 513.044L1139.64 484.233M1150.37 513.044L1146.8 492.248L1136.32 464.674M794.681 464.674L791.362 484.233M794.681 464.674L804.607 445.859L820.705 423.144M794.681 464.674L811.772 440.072M791.362 484.233L794.681 503.822M791.362 484.233L808.763 457.681M794.681 503.822L804.607 522.606M794.681 503.822L811.772 475.32M804.607 522.606L820.705 539.967M804.607 522.606L820.705 492.248M820.705 539.967L842.356 555.162M820.705 539.967L835.191 507.845M842.356 555.162L868.753 567.633M842.356 555.162L854.671 521.523M868.753 567.633L898.872 576.917M868.753 567.633L878.431 532.757M898.872 576.917L931.535 582.612M898.872 576.917L905.51 541.081M931.535 582.612L965.5 584.561M931.535 582.612L934.916 546.249M965.5 584.561L999.465 582.612M965.5 584.561L965.5 547.951M999.465 582.612L1032.16 576.917M999.465 582.612L996.084 546.249M1032.16 576.917L1062.25 567.633M1032.16 576.917L1025.49 541.081M1062.25 567.633L1088.64 555.162M1062.25 567.633L1052.57 532.757M1088.64 555.162L1110.29 539.967M1088.64 555.162L1076.33 521.523M1110.29 539.967L1126.39 522.606M1110.29 539.967L1095.81 507.845M1126.39 522.606L1136.32 503.822M1126.39 522.606L1110.29 492.248M1136.32 503.822L1139.64 484.233M1136.32 503.822L1119.23 475.32M1139.64 484.233L1136.32 464.674M1139.64 484.233L1122.24 457.681M1136.32 464.674L1119.23 440.072M1136.32 464.674L1126.39 445.859L1110.29 423.144M820.705 423.144L811.772 440.072M820.705 423.144L835.191 407.547L854.671 391.764M820.705 423.144L842.356 405.041M811.772 440.072L808.763 457.681M811.772 440.072L834.757 419.431M808.763 457.681L811.772 475.32M808.763 457.681L832.213 434.409M811.772 475.32L820.705 492.248M811.772 475.32L834.757 449.387M820.705 492.248L835.191 507.845M820.705 492.248L842.356 463.808M835.191 507.845L854.671 521.523M835.191 507.845L854.671 477.084M854.671 521.523L878.431 532.757M854.671 521.523L871.266 488.689M878.431 532.757L905.51 541.081M878.431 532.757L891.428 498.251M905.51 541.081L934.916 546.249M905.51 541.081L914.474 505.338M934.916 546.249L965.5 547.951M934.916 546.249L939.506 509.732M965.5 547.951L996.084 546.249M965.5 547.951V511.187M996.084 546.249L1025.49 541.081M996.084 546.249L991.494 509.733M1025.49 541.081L1052.57 532.757M1025.49 541.081L1016.49 505.338M1052.57 532.757L1076.33 521.523M1052.57 532.757L1039.54 498.251M1076.33 521.523L1095.81 507.845M1076.33 521.523L1059.73 488.689M1095.81 507.845L1110.29 492.248M1095.81 507.845L1076.33 477.084M1110.29 492.248L1119.23 475.32M1110.29 492.248L1088.64 463.808M1119.23 475.32L1122.24 457.681M1119.23 475.32L1096.21 449.387M1122.24 457.681L1119.23 440.072M1122.24 457.681L1098.79 434.409M1119.23 440.072L1110.29 423.144M1119.23 440.072L1096.21 419.431M1110.29 423.144L1088.64 405.04M1110.29 423.144L1095.81 407.547L1076.33 391.764M854.671 391.764L842.356 405.041M854.671 391.764L871.266 380.129M854.671 391.764L878.431 381.8M842.356 405.041L834.757 419.431M842.356 405.041L868.753 392.229M834.757 419.431L832.213 434.409M834.757 419.431L862.797 403.555M832.213 434.409L834.757 449.387M832.213 434.409L860.781 415.315M834.757 449.387L842.356 463.808M834.757 449.387L862.797 427.105M842.356 463.808L854.671 477.084M842.356 463.808L868.753 438.401M854.671 477.084L871.266 488.689M854.671 477.084L878.431 448.83M871.266 488.689L891.428 498.251M871.266 488.689L891.428 457.99M891.428 498.251L914.474 505.338M891.428 498.251L907.309 465.479M914.474 505.338L939.506 509.732M914.474 505.338L925.424 471.049M939.506 509.732L965.5 511.187M939.506 509.732L945.059 474.484M965.5 511.187L991.494 509.733M965.5 511.187V475.66M991.494 509.733L1016.49 505.338M991.494 509.733L985.941 474.484M1016.49 505.338L1039.54 498.251M1016.49 505.338L1005.58 471.049M1039.54 498.251L1059.73 488.689M1039.54 498.251L1023.69 465.479M1059.73 488.689L1076.33 477.084M1059.73 488.689L1039.54 457.99M1076.33 477.084L1088.64 463.808M1076.33 477.084L1052.57 448.83M1088.64 463.808L1096.21 449.387M1088.64 463.808L1062.25 438.401M1096.21 449.387L1098.79 434.409M1096.21 449.387L1068.2 427.105M1098.79 434.409L1096.21 419.431M1098.79 434.409L1070.22 415.315M1096.21 419.431L1088.64 405.04M1096.21 419.431L1068.2 403.555M1088.64 405.04L1076.33 391.764M1088.64 405.04L1062.25 392.229M1076.33 391.764L1052.57 381.8M1076.33 391.764L1059.73 380.129M871.266 380.129L891.428 372.67M871.266 380.129L891.428 370.597L907.309 365.181M891.428 372.67L878.431 381.8M891.428 372.67L907.309 365.181M891.428 372.67L914.474 371.773M878.431 381.8L868.753 392.229M878.431 381.8L905.51 378.055M868.753 392.229L862.797 403.555M868.753 392.229L898.872 385.235M862.797 403.555L860.781 415.315M862.797 403.555L894.747 393.033M860.781 415.315L862.797 427.105M860.781 415.315L893.351 401.141M862.797 427.105L868.753 438.401M862.797 427.105L894.747 409.249M868.753 438.401L878.431 448.83M868.753 438.401L898.872 417.048M878.431 448.83L891.428 457.99M878.431 448.83L905.51 424.227M891.428 457.99L907.309 465.479M891.428 457.99L914.474 430.509M907.309 465.479L925.424 471.049M907.309 465.479L925.424 435.678M925.424 471.049L945.059 474.484M925.424 471.049L937.893 439.515M945.059 474.484L965.5 475.66M945.059 474.484L951.418 441.898M965.5 475.66L985.941 474.484M965.5 475.66V442.702M985.941 474.484L1005.58 471.049M985.941 474.484L979.582 441.898M1005.58 471.049L1023.69 465.479M1005.58 471.049L993.107 439.515M1023.69 465.479L1039.54 457.99M1023.69 465.479L1005.58 435.678M1039.54 457.99L1052.57 448.83M1039.54 457.99L1016.49 430.509M1052.57 448.83L1062.25 438.401M1052.57 448.83L1025.49 424.227M1062.25 438.401L1068.2 427.105M1062.25 438.401L1032.16 417.048M1068.2 427.105L1070.22 415.315M1068.2 427.105L1036.25 409.249M1070.22 415.315L1068.2 403.555M1070.22 415.315L1037.62 401.141M1068.2 403.555L1062.25 392.229M1068.2 403.555L1036.25 393.033M1062.25 392.229L1052.57 381.8M1062.25 392.229L1032.16 385.235M1052.57 381.8L1039.54 372.67M1052.57 381.8L1025.49 378.055M1059.73 380.129L1039.54 372.67M1059.73 380.129L1039.54 370.597L1023.69 365.181M1039.54 372.67L1023.69 365.181M1039.54 372.67L1016.49 371.773M1023.69 365.181L1005.58 366.574M1023.69 365.181L1005.58 359.611M907.309 365.181L925.424 359.611M907.309 365.181L925.424 366.574M914.474 371.773L905.51 378.055M914.474 371.773L925.424 366.574M914.474 371.773L939.506 377.405M905.51 378.055L898.872 385.235M905.51 378.055L934.916 380.624M898.872 385.235L894.747 393.033M898.872 385.235L931.535 384.306M894.747 393.033L893.351 401.141M894.747 393.033L929.425 388.268M893.351 401.141L894.747 409.249M893.351 401.141L928.712 392.414M894.747 409.249L898.872 417.048M894.747 409.249L929.425 396.53M898.872 417.048L905.51 424.227M898.872 417.048L931.535 400.491M905.51 424.227L914.474 430.509M905.51 424.227L934.916 404.174M914.474 430.509L925.424 435.678M914.474 430.509L939.506 407.361M925.424 435.678L937.893 439.515M925.424 435.678L945.059 410.023M937.893 439.515L951.418 441.898M937.893 439.515L951.418 411.973M951.418 441.898L965.5 442.702M951.418 441.898L958.335 413.179M965.5 442.702L979.582 441.898M965.5 442.702L965.5 413.582M979.582 441.898L993.107 439.515M979.582 441.898L972.665 413.179M993.107 439.515L1005.58 435.678M993.107 439.515L979.582 411.973M1005.58 435.678L1016.49 430.509M1005.58 435.678L985.941 410.023M1016.49 430.509L1025.49 424.227M1016.49 430.509L991.494 407.362M1025.49 424.227L1032.16 417.048M1025.49 424.227L996.084 404.174M1032.16 417.048L1036.25 409.249M1032.16 417.048L999.465 400.491M1036.25 409.249L1037.62 401.141M1036.25 409.249L1001.57 396.53M1037.62 401.141L1036.25 393.033M1037.62 401.141L1002.26 392.414M1036.25 393.033L1032.16 385.235M1036.25 393.033L1001.57 388.267M1032.16 385.235L1025.49 378.055M1032.16 385.235L999.465 384.306M1025.49 378.055L1016.49 371.773M1025.49 378.055L996.084 380.624M1016.49 371.773L1005.58 366.574M1016.49 371.773L991.494 377.405M1005.58 366.574L993.107 362.737M1005.58 366.574L985.941 374.775M1005.58 359.611L993.107 362.737M1005.58 359.611L985.941 356.176M993.107 362.737L979.582 360.385M993.107 362.737L979.582 372.825M985.941 356.176L979.582 360.385M985.941 356.176L965.5 355M979.582 360.385L965.5 359.58M979.582 360.385L972.665 371.618M965.5 355V359.58M965.5 355L945.059 356.176M965.5 359.58L951.418 360.385M965.5 359.58V371.216M945.059 356.176L951.418 360.385M945.059 356.176L925.424 359.611M951.418 360.385L937.893 362.737M951.418 360.385L958.335 371.618M925.424 359.611L937.893 362.737M937.893 362.737L925.424 366.574M937.893 362.737L951.418 372.825M925.424 366.574L945.059 374.775M939.506 377.405L934.916 380.624M939.506 377.405L945.059 374.775M939.506 377.405L965.5 389.443M934.916 380.624L931.535 384.306M934.916 380.624L965.5 389.443M931.535 384.306L929.425 388.268M931.535 384.306L965.5 389.443M929.425 388.268L928.712 392.414M929.425 388.268L965.5 389.443M928.712 392.414L929.425 396.53M928.712 392.414L965.5 389.443M929.425 396.53L931.535 400.491M929.425 396.53L965.5 389.443M931.535 400.491L934.916 404.174M931.535 400.491L965.5 389.443M934.916 404.174L939.506 407.361M934.916 404.174L965.5 389.443M939.506 407.361L945.059 410.023M939.506 407.361L965.5 389.443M945.059 410.023L951.418 411.973M945.059 410.023L965.5 389.443M951.418 411.973L958.335 413.179M951.418 411.973L965.5 389.443M958.335 413.179L965.5 413.582M958.335 413.179L965.5 389.443M965.5 413.582L972.665 413.179M965.5 413.582L965.5 389.443M972.665 413.179L979.582 411.973M972.665 413.179L965.5 389.443M979.582 411.973L985.941 410.023M979.582 411.973L965.5 389.443M985.941 410.023L991.494 407.362M985.941 410.023L965.5 389.443M991.494 407.362L996.084 404.174M991.494 407.362L965.5 389.443M996.084 404.174L999.465 400.491M996.084 404.174L965.5 389.443M999.465 400.491L1001.57 396.53M999.465 400.491L965.5 389.443M1001.57 396.53L1002.26 392.414M1001.57 396.53L965.5 389.443M1002.26 392.414L1001.57 388.267M1002.26 392.414L965.5 389.443M1001.57 388.267L999.465 384.306M1001.57 388.267L965.5 389.443M999.465 384.306L996.084 380.624M999.465 384.306L965.5 389.443M996.084 380.624L991.494 377.405M996.084 380.624L965.5 389.443M991.494 377.405L985.941 374.775M991.494 377.405L965.5 389.443M985.941 374.775L979.582 372.825M985.941 374.775L965.5 389.443M979.582 372.825L972.665 371.618M979.582 372.825L965.5 389.443M972.665 371.618L965.5 371.216M972.665 371.618L965.5 389.443M965.5 371.216L958.335 371.618M965.5 371.216V389.443M958.335 371.618L951.418 372.825M958.335 371.618L965.5 389.443M951.418 372.825L945.059 374.775M951.418 372.825L965.5 389.443M945.059 374.775L965.5 389.443" stroke="white" stroke-width="0.164818" stroke-linecap="round" stroke-linejoin="round"/>
<defs>
<filter id="filter0_f_284_284" x="0.0648041" y="0.0516205" width="1288.18" height="1026.74" filterUnits="userSpaceOnUse" color-interpolation-filters="sRGB">
<feFlood flood-opacity="0" result="BackgroundImageFix"/>
<feBlend mode="normal" in="SourceGraphic" in2="BackgroundImageFix" result="shape"/>
<feGaussianBlur stdDeviation="71.4676" result="effect1_foregroundBlur_284_284"/>
</filter>
<linearGradient id="paint0_linear_284_284" x1="516" y1="847" x2="768" y2="143" gradientUnits="userSpaceOnUse">
<stop offset="0.11" stop-color="#FF5C00" stop-opacity="0.82"/>
<stop offset="0.499036" stop-color="#B305CF" stop-opacity="0.82"/>
<stop offset="0.92"/>
</linearGradient>
</defs>
</svg>
