<svg width="40" height="47" viewBox="0 0 40 47" fill="none" xmlns="http://www.w3.org/2000/svg">
<path d="M23.3171 32.4615C24.3614 33.8823 25.8173 34.9317 27.4786 35.4613C29.1399 35.9908 30.9224 35.9735 32.5736 35.4119C34.2248 34.8503 35.6609 33.7729 36.6786 32.3322C37.6963 30.8915 38.2439 29.1605 38.2439 27.3846C38.2439 25.4757 37.6004 23.7326 36.5555 22.3178L36.5854 22.3077L20 2L3.41464 22.3077L3.44449 22.3178C2.35455 23.7733 1.76155 25.5529 1.7561 27.3846C1.7561 29.1605 2.30373 30.8915 3.32141 32.3322C4.33909 33.7729 5.77524 34.8503 7.42641 35.4119C9.07758 35.9735 10.8601 35.9908 12.5214 35.4613C14.1827 34.9317 15.6386 33.8823 16.6829 32.4615L18.3415 30.2074V37.5385C18.3415 42.6154 10.0488 42.6154 10.0488 42.6154C9.60892 42.6154 9.18706 42.7937 8.87602 43.111C8.56499 43.4284 8.39025 43.8589 8.39025 44.3077C8.39025 44.7565 8.56499 45.187 8.87602 45.5043C9.18706 45.8217 9.60892 46 10.0488 46H29.9512C30.3911 46 30.813 45.8217 31.124 45.5043C31.435 45.187 31.6098 44.7565 31.6098 44.3077C31.6098 43.8589 31.435 43.4284 31.124 43.111C30.813 42.7937 30.3911 42.6154 29.9512 42.6154C29.9512 42.6154 21.6585 42.6154 21.6585 37.5385V30.2074L23.3171 32.4615Z" stroke="#FF009D" stroke-width="2"/>
</svg>
