<svg width="51" height="51" viewBox="0 0 51 51" fill="none" xmlns="http://www.w3.org/2000/svg">
<g clip-path="url(#clip0_397_362)">
<path d="M48.6381 24.3227C46.5358 14.818 43.3718 9.74498 38.6784 8.35927C37.6919 8.06988 36.6685 7.92531 35.6404 7.93008C34.2814 7.93008 33.0979 8.26114 31.846 8.61203C30.3374 9.03528 28.6236 9.51601 26.1248 9.51601C23.6259 9.51601 21.9111 9.03627 20.3995 8.61302C19.1466 8.26114 17.9641 7.93008 16.6091 7.93008C15.546 7.92639 14.4875 8.0705 13.464 8.35828C8.79542 9.73804 5.63346 14.8091 3.50037 24.3168C1.20671 34.548 2.3357 41.0078 6.6663 42.5065C7.25992 42.7157 7.8845 42.8236 8.51392 42.8256C11.4806 42.8256 13.8595 40.3546 15.4851 38.3315C17.3218 36.0418 19.4717 34.8801 26.1248 34.8801C32.0671 34.8801 34.5263 35.686 36.6504 38.3315C37.9856 39.9947 39.2474 41.1584 40.5062 41.8909C42.1804 42.8643 43.8536 43.0804 45.4781 42.5223C48.0375 41.6491 49.5044 39.3406 49.8395 35.6592C50.0942 32.8362 49.7017 29.1281 48.6381 24.3227ZM21.3669 23.7894H18.1951V26.9613C18.1951 27.3819 18.028 27.7853 17.7306 28.0827C17.4331 28.3802 17.0298 28.5473 16.6091 28.5473C16.1885 28.5473 15.7851 28.3802 15.4877 28.0827C15.1903 27.7853 15.0232 27.3819 15.0232 26.9613V23.7894H11.8513C11.4307 23.7894 11.0273 23.6224 10.7299 23.3249C10.4325 23.0275 10.2654 22.6241 10.2654 22.2035C10.2654 21.7829 10.4325 21.3795 10.7299 21.0821C11.0273 20.7847 11.4307 20.6176 11.8513 20.6176H15.0232V17.4457C15.0232 17.0251 15.1903 16.6217 15.4877 16.3243C15.7851 16.0269 16.1885 15.8598 16.6091 15.8598C17.0298 15.8598 17.4331 16.0269 17.7306 16.3243C18.028 16.6217 18.1951 17.0251 18.1951 17.4457V20.6176H21.3669C21.7876 20.6176 22.191 20.7847 22.4884 21.0821C22.7858 21.3795 22.9529 21.7829 22.9529 22.2035C22.9529 22.6241 22.7858 23.0275 22.4884 23.3249C22.191 23.6224 21.7876 23.7894 21.3669 23.7894ZM29.6931 24.1859C29.301 24.1859 28.9177 24.0697 28.5917 23.8518C28.2657 23.634 28.0116 23.3244 27.8616 22.9621C27.7116 22.5999 27.6723 22.2013 27.7488 21.8168C27.8253 21.4322 28.0141 21.079 28.2913 20.8017C28.5686 20.5245 28.9218 20.3357 29.3064 20.2592C29.6909 20.1827 30.0895 20.2219 30.4518 20.372C30.814 20.522 31.1236 20.7761 31.3414 21.1021C31.5593 21.4281 31.6755 21.8114 31.6755 22.2035C31.6755 22.7293 31.4667 23.2335 31.0949 23.6053C30.7231 23.9771 30.2189 24.1859 29.6931 24.1859ZM34.0544 28.5473C33.6621 28.5473 33.2787 28.4309 32.9526 28.2128C32.6264 27.9948 32.3724 27.6849 32.2225 27.3223C32.0726 26.9598 32.0336 26.5609 32.1105 26.1763C32.1874 25.7916 32.3767 25.4383 32.6544 25.1613C32.9322 24.8843 33.2859 24.6958 33.6707 24.6199C34.0556 24.544 34.4544 24.5839 34.8165 24.7347C35.1787 24.8855 35.4879 25.1404 35.7052 25.4671C35.9224 25.7937 36.0378 26.1775 36.0369 26.5698C36.0356 27.0947 35.8261 27.5977 35.4545 27.9684C35.0828 28.3391 34.5794 28.5473 34.0544 28.5473ZM34.0544 19.8246C33.6624 19.8246 33.2791 19.7083 32.9531 19.4905C32.6271 19.2727 32.373 18.9631 32.2229 18.6008C32.0729 18.2386 32.0336 17.84 32.1101 17.4554C32.1866 17.0709 32.3754 16.7176 32.6527 16.4404C32.9299 16.1632 33.2831 15.9743 33.6677 15.8979C34.0522 15.8214 34.4508 15.8606 34.8131 16.0107C35.1753 16.1607 35.4849 16.4148 35.7028 16.7408C35.9206 17.0668 36.0369 17.4501 36.0369 17.8422C36.0369 18.368 35.828 18.8722 35.4562 19.244C35.0845 19.6157 34.5802 19.8246 34.0544 19.8246ZM38.4158 24.1859C38.0237 24.1859 37.6404 24.0697 37.3144 23.8518C36.9884 23.634 36.7343 23.3244 36.5843 22.9621C36.4342 22.5999 36.3949 22.2013 36.4714 21.8168C36.5479 21.4322 36.7367 21.079 37.014 20.8017C37.2912 20.5245 37.6445 20.3357 38.029 20.2592C38.4136 20.1827 38.8122 20.2219 39.1744 20.372C39.5366 20.522 39.8463 20.7761 40.0641 21.1021C40.2819 21.4281 40.3982 21.8114 40.3982 22.2035C40.3982 22.7293 40.1893 23.2335 39.8176 23.6053C39.4458 23.9771 38.9415 24.1859 38.4158 24.1859Z" stroke="#FF5C00" stroke-width="1.89663"/>
</g>
<defs>
<clipPath id="clip0_397_362">
<rect width="50.75" height="50.75" fill="white" transform="translate(0.25 1.52588e-05)"/>
</clipPath>
</defs>
</svg>
