<?xml version="1.0" encoding="UTF-8"?>
<svg id="Camada_1" data-name="Camada 1" xmlns="http://www.w3.org/2000/svg" xmlns:xlink="http://www.w3.org/1999/xlink" viewBox="0 0 726 563.6">
  <defs>
    <style>
      .cls-1 {
        stroke: #fff;
        stroke-width: .12px;
      }

      .cls-1, .cls-2 {
        stroke-linecap: round;
        stroke-linejoin: round;
      }

      .cls-1, .cls-2, .cls-3 {
        fill: none;
      }

      .cls-2 {
        stroke: #ac05c7;
        stroke-width: .3px;
      }

      .cls-3, .cls-4, .cls-5 {
        stroke-width: 0px;
      }

      .cls-6 {
        clip-path: url(#clippath);
      }

      .cls-4 {
        fill: url(#Gradiente_sem_nome_7);
      }

      .cls-5 {
        fill: #fff;
      }

      .cls-7 {
        mask: url(#mask);
      }
    </style>
    <mask id="mask" x="222.24" y="225.52" width="299.27" height="267.88" maskUnits="userSpaceOnUse">
      <g id="mask0_284_284" data-name="mask0 284 284">
        <path class="cls-5" d="M224.61,324.81l155.78-69.98,101.33,29.48-80.16,148.52-176.95-108.02Z"/>
      </g>
    </mask>
    <linearGradient id="Gradiente_sem_nome_7" data-name="Gradiente sem nome 7" x1="283.58" y1="237.78" x2="463.58" y2="485.86" gradientTransform="translate(545.93 -127.57) rotate(65.64)" gradientUnits="userSpaceOnUse">
      <stop offset="0" stop-color="#b5006c" stop-opacity="0"/>
      <stop offset="1" stop-color="#b5006c"/>
    </linearGradient>
    <clipPath id="clippath">
      <rect class="cls-3" width="726" height="563.6"/>
    </clipPath>
  </defs>
  <g class="cls-7">
    <ellipse class="cls-4" cx="371.87" cy="359.46" rx="129.56" ry="153.38" transform="translate(-108.98 549.94) rotate(-65.64)"/>
  </g>
  <g class="cls-6">
    <g>
      <path class="cls-1" d="M151.06,204.96l23.08-83.68,10.48,147.59-33.56-63.91Z"/>
      <path class="cls-1" d="M184.62,268.87l-10.48-147.59,35.74,80.67-25.26,66.92Z"/>
      <path class="cls-1" d="M209.88,201.95l-35.74-80.67,41.88,60.96-6.14,19.71Z"/>
      <path class="cls-1" d="M184.62,268.87l25.26-66.92,12.45,162.54-37.71-95.62Z"/>
      <path class="cls-1" d="M209.88,201.95l6.14-19.71,10.86,20.85,10.69,20.49,2.41,4.63,7.66,14.68-37.76-40.95Z"/>
      <path class="cls-1" d="M209.88,201.95l37.76,40.95,3.38,88.61-41.14-129.56Z"/>
      <path class="cls-1" d="M151.06,204.96l33.56,63.91-20.17,99.71-13.39-163.62Z"/>
      <path class="cls-1" d="M151.06,204.96l13.39,163.62-27.42-29.43,14.03-134.18Z"/>
      <path class="cls-1" d="M164.45,368.58l20.17-99.71,7.26,125.52-27.44-25.8Z"/>
      <path class="cls-1" d="M151.06,204.96l-14.03,134.18-1.51-89.92,15.55-44.26Z"/>
      <path class="cls-1" d="M137.03,339.15l27.42,29.43-31.9,30.2,4.48-59.64Z"/>
      <path class="cls-1" d="M137.03,339.15l-4.48,59.64-24.24-12.76,28.73-46.88Z"/>
      <path class="cls-1" d="M132.55,398.78l31.9-30.2-6.64,43.5-25.26-13.3Z"/>
      <path class="cls-1" d="M137.03,339.15l-28.73,46.88,8.34-40.78,20.38-6.1Z"/>
      <path class="cls-1" d="M415.85,231.76l8.78,2.74-4.94,2.39-3.84-5.12Z"/>
      <path class="cls-1" d="M419.68,236.88l4.94-2.39,2.01,11.62-6.95-9.23Z"/>
      <path class="cls-1" d="M708.59,342.61l-17.79,14.85-15.01-25.45,32.79,10.6Z"/>
      <path class="cls-1" d="M675.79,332.01l15.01,25.45-33.27-11.16,18.27-14.29Z"/>
      <path class="cls-1" d="M708.59,342.61l-32.79-10.6,17.39-13.61,15.4,24.21Z"/>
      <path class="cls-1" d="M693.18,318.4l32.3,10.1-16.9,14.11-15.4-24.21Z"/>
      <path class="cls-1" d="M675.79,332.01l-18.27,14.29-13.33-24.52,31.59,10.23Z"/>
      <path class="cls-1" d="M657.53,346.3l33.27,11.16-18.72,15.62-14.55-26.78Z"/>
      <path class="cls-1" d="M657.53,346.3l14.55,26.78-33.77-11.74,19.22-15.04Z"/>
      <path class="cls-1" d="M657.53,346.3l-19.22,15.04-12.83-25.78,32.05,10.74Z"/>
      <path class="cls-1" d="M638.31,361.34l33.77,11.74-19.74,16.49-14.03-28.23Z"/>
      <path class="cls-1" d="M638.31,361.34l14.03,28.23-34.29-12.38,20.26-15.85Z"/>
      <path class="cls-1" d="M638.31,361.34l-20.26,15.85-12.25-27.15,32.5,11.3Z"/>
      <path class="cls-1" d="M618.05,377.19l34.29,12.38-20.86,17.43-13.43-29.81Z"/>
      <path class="cls-1" d="M618.05,377.19l13.43,29.81-34.81-13.09,21.38-16.72Z"/>
      <path class="cls-1" d="M693.18,318.4l-17.39,13.61-13.76-23.34,31.15,9.73Z"/>
      <path class="cls-1" d="M662.03,308.67l13.76,23.34-31.59-10.23,17.83-13.11Z"/>
      <path class="cls-1" d="M506.73,511.19l-30.01,25.06-7.47-47.31,37.48,22.26Z"/>
      <path class="cls-1" d="M469.25,488.93l7.47,47.31-37.88-18.85,30.41-28.46Z"/>
      <path class="cls-1" d="M506.73,511.19l-37.48-22.26,28.43-50.51,9.05,72.77Z"/>
      <path class="cls-1" d="M497.68,438.42l-28.44,50.51-7.76-83.26,36.2,32.75Z"/>
      <path class="cls-1" d="M506.73,511.19l-9.05-72.77,37.22,44.72-28.17,28.04Z"/>
      <path class="cls-1" d="M662.03,308.67l-17.83,13.11-12.22-22.51,30.05,9.4Z"/>
      <path class="cls-1" d="M644.2,321.79l13.33,24.52-32.05-10.74,18.72-13.77Z"/>
      <path class="cls-1" d="M625.48,335.56l12.83,25.78-32.5-11.3,19.68-14.48Z"/>
      <path class="cls-1" d="M644.2,321.79l-18.72,13.77-11.52-28.36,30.24,14.58Z"/>
      <path class="cls-1" d="M444.61,563.09l-38.36-20.2,32.59-25.49,5.77,45.7Z"/>
      <path class="cls-1" d="M534.9,483.14l-37.22-44.72,27.42-37.71,9.8,82.43Z"/>
      <path class="cls-1" d="M625.48,335.56l-19.68,14.48-10.77-36.05,30.45,21.57Z"/>
      <path class="cls-1" d="M525.1,400.71l-27.42,37.71-8.45-74.34,35.87,36.63Z"/>
      <path class="cls-1" d="M444.61,563.09l-5.77-45.7,37.88,18.85-32.11,26.84Z"/>
      <path class="cls-1" d="M438.84,517.39l-32.59,25.49-3.49-43.46,36.07,17.96Z"/>
      <path class="cls-1" d="M534.9,483.14l-9.8-82.43,36.36,54.53-26.57,27.9Z"/>
      <path class="cls-1" d="M561.47,455.24l-36.36-54.53,25.63-1.85,10.73,56.38Z"/>
      <path class="cls-1" d="M550.74,398.86l-25.63,1.85-9.22-32.13,34.85,30.28Z"/>
      <path class="cls-1" d="M561.47,455.24l-10.73-56.38,35.47,41.69-16.88,10.02-7.87,4.67Z"/>
      <path class="cls-1" d="M586.21,440.56l-35.47-41.69,23.47,8.48,12,33.21Z"/>
      <path class="cls-1" d="M596.67,393.91l34.81,13.09-22.04,18.42-12.77-31.51Z"/>
      <path class="cls-1" d="M596.67,393.91l12.77,31.51-35.22-18.07,22.46-13.44Z"/>
      <path class="cls-1" d="M596.67,393.91l-22.46,13.44-10.94-26.01,33.4,12.57Z"/>
      <path class="cls-1" d="M574.21,407.35l35.22,18.07-23.23,15.14-12-33.21Z"/>
      <path class="cls-1" d="M574.21,407.35l-23.47-8.48-10.38-10.29,33.85,18.77Z"/>
      <path class="cls-1" d="M605.8,350.04l12.24,27.15-32.94-11.91,20.69-15.25Z"/>
      <path class="cls-1" d="M618.05,377.19l-21.38,16.72-11.56-28.62,32.94,11.91Z"/>
      <path class="cls-1" d="M469.25,488.93l-30.41,28.46-5.56-51.26,35.97,22.8Z"/>
      <path class="cls-1" d="M631.98,299.28l12.22,22.51-30.24-14.58,18.02-7.92Z"/>
      <path class="cls-1" d="M585.11,365.28l11.56,28.62-33.4-12.57,21.84-16.06Z"/>
      <path class="cls-1" d="M550.74,398.86l-34.85-30.28,6.46,5.27,18.02,14.73,10.38,10.29Z"/>
      <path class="cls-1" d="M489.24,364.08l8.45,74.34-36.2-32.75,27.75-41.59Z"/>
      <path class="cls-1" d="M489.24,364.08l-27.75,41.59-6.02-32.63,12.16-3.24,7.7-2.03,13.91-3.69Z"/>
      <path class="cls-1" d="M461.49,405.67l7.76,83.26-35.97-22.8,28.21-60.46Z"/>
      <path class="cls-1" d="M433.28,466.14l5.56,51.26-36.07-17.96,30.51-33.29Z"/>
      <path class="cls-1" d="M585.11,365.28l-21.84,16.05-9.86-27.51,31.69,11.45Z"/>
      <path class="cls-1" d="M515.89,368.58l9.22,32.13-35.87-36.63,1.08.19,12.74,2.16,12.83,2.16Z"/>
      <path class="cls-1" d="M402.77,499.43l3.49,43.46-36.47-19.21,32.98-24.25Z"/>
      <path class="cls-1" d="M402.77,499.43l-32.98,24.25-1.39-41.38,34.37,17.13Z"/>
      <path class="cls-1" d="M631.98,299.28l-18.02,7.92-10.84-21.57,28.85,13.65Z"/>
      <path class="cls-1" d="M563.27,381.34l10.94,26.01-33.85-18.77,22.91-7.24Z"/>
      <path class="cls-1" d="M563.27,381.34l-22.91,7.24-9.17-19.31,32.09,12.07Z"/>
      <path class="cls-1" d="M613.96,307.2l11.52,28.36-30.45-21.57,18.93-6.78Z"/>
      <path class="cls-1" d="M433.28,466.14l-30.51,33.29-3.34-43.27,33.85,9.98Z"/>
      <path class="cls-1" d="M613.96,307.2l-18.93,6.78-9.61-45.55,28.54,38.77Z"/>
      <path class="cls-1" d="M461.49,405.67l-28.21,60.46-5.5-57.69,33.71-2.78Z"/>
      <path class="cls-1" d="M595.03,313.98l10.77,36.05-31.13-15.79,20.36-20.27Z"/>
      <path class="cls-1" d="M595.03,313.98l-20.36,20.27-8.59-72.37,28.95,52.11Z"/>
      <path class="cls-1" d="M574.67,334.25l31.13,15.79-20.69,15.25-10.44-31.03Z"/>
      <path class="cls-1" d="M574.67,334.25l10.44,31.03-31.69-11.45,21.25-19.58Z"/>
      <path class="cls-1" d="M574.67,334.25l-21.25,19.58-8.53-60.43,29.79,40.84Z"/>
      <path class="cls-1" d="M613.96,307.2l-28.54-38.77,17.71,17.2,10.84,21.57Z"/>
      <path class="cls-1" d="M585.42,268.43l9.61,45.55-28.95-52.11,19.34,6.55Z"/>
      <path class="cls-1" d="M455.47,373.04l6.02,32.63-33.71,2.78,27.69-35.41Z"/>
      <path class="cls-1" d="M585.42,268.43l-19.34-6.55-9.15-20.29,28.5,26.84Z"/>
      <path class="cls-1" d="M574.67,334.25l-29.79-40.84,21.19-31.53,8.59,72.37Z"/>
      <path class="cls-1" d="M433.28,466.14l-33.85-9.98,28.35-47.71,5.5,57.69Z"/>
      <path class="cls-1" d="M399.43,456.16l3.34,43.27-34.37-17.13,31.03-26.14Z"/>
      <path class="cls-1" d="M399.43,456.16l-31.03,26.14-.58-27.92,31.61,1.78Z"/>
      <path class="cls-1" d="M553.41,353.83l9.86,27.51-32.09-12.07,22.23-15.43Z"/>
      <path class="cls-1" d="M531.18,369.27l9.17,19.31-18.02-14.73,8.84-4.58Z"/>
      <path class="cls-1" d="M368.4,482.29l1.39,41.38-10.83-5.7-14.63-7.7-9.22-4.85,33.29-23.13Z"/>
      <path class="cls-1" d="M566.08,261.88l-21.19,31.53-7.99-64.78,29.18,33.25Z"/>
      <path class="cls-1" d="M544.88,293.41l8.53,60.43-30.45-15.95,21.92-44.47Z"/>
      <path class="cls-1" d="M544.88,293.41l-21.92,44.47-7.58-72.91,29.49,28.44Z"/>
      <path class="cls-1" d="M368.4,482.29l-33.29,23.13.5-39.45,32.79,16.32Z"/>
      <path class="cls-1" d="M522.97,337.88l30.45,15.95-22.23,15.43-8.22-31.38Z"/>
      <path class="cls-1" d="M531.18,369.27l-8.84,4.58-6.46-5.27-12.83-2.16-2.72-8.75,30.84,11.6Z"/>
      <path class="cls-1" d="M522.97,337.88l8.22,31.38-30.84-11.6,22.62-19.79Z"/>
      <path class="cls-1" d="M522.97,337.88l-22.62,19.79-6.87-36.82,29.49,17.03Z"/>
      <path class="cls-1" d="M455.47,373.04l-27.69,35.41-2.88-2.14,18.91-20.56,6.21-6.76,5.46-5.95Z"/>
      <path class="cls-1" d="M427.78,408.45l-28.35,47.71-1.62-13.94,29.97-33.77Z"/>
      <path class="cls-1" d="M399.43,456.16l-31.61-1.78,2.43-.99,6.39-2.59,20.36-8.26.81-.31,1.62,13.94Z"/>
      <path class="cls-1" d="M367.82,454.37l.58,27.92-32.8-16.33,8.14-2.92,17.37-6.27,6.7-2.41Z"/>
      <path class="cls-1" d="M556.92,241.59l9.15,20.29-29.18-33.25,20.03,12.96Z"/>
      <path class="cls-1" d="M536.89,228.63l7.99,64.78-29.49-28.44,21.5-36.34Z"/>
      <path class="cls-1" d="M515.39,264.97l7.58,72.91-29.49-17.03,21.92-55.88Z"/>
      <path class="cls-1" d="M335.6,465.97l-.5,39.45-6.7-3.53-16.21-8.55-10.13-5.33,33.54-22.05Z"/>
      <path class="cls-1" d="M335.6,465.97l-33.54,22.05,3.15-28.46,5.31,1.12,5.56,1.16,7.55,1.6,11.95,2.53Z"/>
      <path class="cls-1" d="M424.89,406.31l2.88,2.14-29.97,33.77,8.01-10.62,19.08-25.29Z"/>
      <path class="cls-1" d="M493.47,320.85l6.87,36.82-29.66-11.16,22.79-25.66Z"/>
      <path class="cls-1" d="M493.47,320.85l-22.79,25.66-5.67-36.74,28.46,11.08Z"/>
      <path class="cls-1" d="M536.89,228.63l-21.5,36.34-7.1-20.54,28.6-15.81Z"/>
      <path class="cls-1" d="M470.68,346.51l29.66,11.16-10.03,6.6-1.08-.19-13.91,3.69-4.65-21.26Z"/>
      <path class="cls-1" d="M470.68,346.51l4.65,21.26-7.7,2.03-21.07-8.26,24.12-15.04Z"/>
      <path class="cls-1" d="M490.32,364.27l10.03-6.6,2.72,8.75-12.74-2.16Z"/>
      <path class="cls-1" d="M515.39,264.97l-21.92,55.88-6.52-46.32,28.44-9.56Z"/>
      <path class="cls-1" d="M508.29,244.43l7.1,20.54-28.44,9.56,21.34-30.1Z"/>
      <path class="cls-1" d="M486.95,274.53l6.52,46.32-28.46-11.08,21.94-35.24Z"/>
      <path class="cls-1" d="M486.95,274.53l-21.94,35.24-4.94-22.13,26.88-13.11Z"/>
      <path class="cls-1" d="M465.02,309.77l5.67,36.74-29.16-28.29,23.5-8.44Z"/>
      <path class="cls-1" d="M508.29,244.43l-21.34,30.1-5.42,2.18,6.21-7.49,9.01-10.87.87-1.04,10.67-12.88Z"/>
      <path class="cls-1" d="M470.68,346.51l-24.12,15.04-5.04-43.33,29.16,28.29Z"/>
      <path class="cls-1" d="M305.22,459.56l-3.15,28.46-3.84-2.01-27.69-14.58,34.68-11.87Z"/>
      <path class="cls-1" d="M305.22,459.56l-34.68,11.87,6.23-15.04,4.15.46,3.59.41,20.71,2.3Z"/>
      <path class="cls-1" d="M446.56,361.55l21.07,8.25-12.16,3.24-5.46,5.95-3.45-17.44Z"/>
      <path class="cls-1" d="M446.56,361.55l3.45,17.44-6.21,6.76-22.27.14,25.03-24.35Z"/>
      <path class="cls-1" d="M446.56,361.55l-25.03,24.35-4.15-43.31,29.18,18.96Z"/>
      <path class="cls-1" d="M421.53,385.9l22.27-.14-18.91,20.56-3.36-20.41Z"/>
      <path class="cls-1" d="M421.53,385.9l3.36,20.41-19.08,25.29,15.71-45.7Z"/>
      <path class="cls-1" d="M421.53,385.9l-15.71,45.7-8.01,10.62-.81.31-3.82-57.64,28.35,1.02Z"/>
      <path class="cls-1" d="M465.02,309.77l-23.5,8.44-5.35-59.43,28.85,50.99Z"/>
      <path class="cls-1" d="M441.52,318.22l5.04,43.33-29.18-18.96,24.14-24.37Z"/>
      <path class="cls-1" d="M441.52,318.22l-24.14,24.37-6.66-101.35,30.8,76.98Z"/>
      <path class="cls-1" d="M417.38,342.59l4.15,43.31-28.35-1.02,24.2-42.29Z"/>
      <path class="cls-1" d="M358.95,517.97l-11.46,10.93-3.17-18.63,14.63,7.7Z"/>
      <path class="cls-1" d="M486.95,274.53l-26.88,13.11,21.46-10.93,5.42-2.18Z"/>
      <path class="cls-1" d="M481.54,276.71l-21.46,10.93-4.26-8.94,25.72-1.99Z"/>
      <path class="cls-1" d="M460.08,287.64l4.94,22.13-28.85-50.99,5.06,6.12,10.23,12.34.52.62,8.09,9.77Z"/>
      <path class="cls-1" d="M276.76,456.39l-6.23,15.04-30.1-15.83,36.32.79Z"/>
      <path class="cls-1" d="M276.76,456.39l-36.32-.79,6.37-25.49,29.95,26.28Z"/>
      <path class="cls-1" d="M436.17,258.79l5.35,59.43-30.8-76.98,25.45,17.55Z"/>
      <path class="cls-1" d="M436.17,258.79l-25.45-17.55-2.82-20.04,7.95,10.56,3.84,5.12,6.95,9.23,3.34,4.46,1.93,2.57,4.26,5.64Z"/>
      <path class="cls-1" d="M315.61,510.01l-17.39-24,3.84,2.01,10.13,5.33,3.42,16.66Z"/>
      <path class="cls-1" d="M315.61,510.01l-3.42-16.66,16.21,8.55-12.79,8.11Z"/>
      <path class="cls-1" d="M410.72,241.24l6.66,101.35-30.59-58.62,23.93-42.73Z"/>
      <path class="cls-1" d="M315.61,510.01l12.79-8.11,6.7,3.53,9.22,4.85,3.17,18.63-31.88-18.9Z"/>
      <path class="cls-1" d="M410.72,241.24l-23.93,42.73-5.79-90.69,29.72,47.96Z"/>
      <path class="cls-1" d="M386.79,283.97l30.59,58.62-24.2,42.3-6.39-100.92Z"/>
      <path class="cls-1" d="M386.79,283.97l6.39,100.92-29.04-30.2,22.64-70.71Z"/>
      <path class="cls-1" d="M393.18,384.89l3.82,57.64-20.36,8.26,16.54-65.9Z"/>
      <path class="cls-1" d="M393.18,384.89l-16.54,65.9-6.39,2.59-6.1-98.69,29.04,30.2Z"/>
      <path class="cls-1" d="M496.15,256.86l1.47.46-.87,1.04-.6-1.49Z"/>
      <path class="cls-1" d="M496.15,256.86l.6,1.49-9.01,10.87-11.31-1.68,19.72-10.68Z"/>
      <path class="cls-1" d="M496.15,256.86l-19.72,10.68-4.88-18.38,24.6,7.7Z"/>
      <path class="cls-1" d="M410.72,241.24l-29.72-47.96,26.9,27.92,2.82,20.04Z"/>
      <path class="cls-1" d="M380.99,193.28l5.79,90.69-29.43-39.66,23.64-51.03Z"/>
      <path class="cls-1" d="M240.44,455.6l-28.75-15.16,35.12-10.33-6.37,25.49Z"/>
      <path class="cls-1" d="M276.76,456.39l-29.95-26.28,4.67-31.43,29.43,58.16-4.15-.46Z"/>
      <path class="cls-1" d="M481.54,276.71l-25.72,1.99,20.61-11.16,5.11,9.17Z"/>
      <path class="cls-1" d="M455.82,278.7l4.26,8.94-8.1-9.77,3.84.83Z"/>
      <path class="cls-1" d="M380.99,193.28l-23.64,51.03-.54-20.31,2.78-3.55,3.96-5.04,17.43-22.13Z"/>
      <path class="cls-1" d="M357.35,244.31l29.43,39.66-22.65,70.71-6.79-110.37Z"/>
      <path class="cls-1" d="M357.35,244.31l6.79,110.37-28.42-29.37,21.63-81Z"/>
      <path class="cls-1" d="M455.82,278.7l-3.84-.83-.52-.62,4.36,1.45Z"/>
      <path class="cls-1" d="M246.81,430.1l-35.12,10.33,6.52-32.94,28.6,22.61Z"/>
      <path class="cls-1" d="M476.43,267.54l11.31,1.68-6.21,7.49-5.11-9.17Z"/>
      <path class="cls-1" d="M357.35,244.31l-21.63,81-2.62-60.38,24.24-20.62Z"/>
      <path class="cls-1" d="M335.73,325.31l28.42,29.37-22.4,73.86-6.02-103.24Z"/>
      <path class="cls-1" d="M476.43,267.54l-20.61,11.16-4.19-19.19,24.8,8.03Z"/>
      <path class="cls-1" d="M364.14,354.68l6.1,98.69-2.43.99-6.7,2.41-19.36-28.23,22.39-73.86Z"/>
      <path class="cls-1" d="M341.75,428.55l19.36,28.23-17.37,6.27-1.99-34.5Z"/>
      <path class="cls-1" d="M341.75,428.55l1.99,34.5-8.14,2.92-11.95-2.53,18.1-34.89Z"/>
      <path class="cls-1" d="M341.75,428.55l-18.1,34.89-7.55-1.6-5.56-95.67,31.22,62.37Z"/>
      <path class="cls-1" d="M310.53,366.17l5.56,95.67-5.56-1.16-27.52-67.56,27.52-26.94Z"/>
      <path class="cls-1" d="M471.55,249.16l4.88,18.38-24.8-8.03,19.93-10.35Z"/>
      <path class="cls-1" d="M356.82,224l.54,20.31-24.24,20.62,2.72-4.67,5.98-10.35,3.24-5.58,8.82-15.25,2.8-4.83.15-.25Z"/>
      <path class="cls-1" d="M333.11,264.93l2.62,60.38-25.18-.37,22.56-60.01Z"/>
      <path class="cls-1" d="M310.55,324.94l25.18.37-25.2,40.86.02-41.24Z"/>
      <path class="cls-1" d="M333.11,264.93l-22.56,60.01,1.41-23.13,14.43-25.14,6.72-11.74Z"/>
      <path class="cls-1" d="M310.53,366.17l25.2-40.86,6.02,103.24-31.22-62.37Z"/>
      <path class="cls-1" d="M310.53,366.17l-27.52,26.95-.66-59.08,28.19,32.13Z"/>
      <path class="cls-1" d="M283.01,393.12l27.52,67.56-5.31-1.12-20.71-2.3-1.49-64.14Z"/>
      <path class="cls-1" d="M455.82,278.7l-4.36-1.45-10.23-12.34,10.4-5.39,4.19,19.19Z"/>
      <path class="cls-1" d="M451.63,259.52l-10.4,5.39-5.06-6.12-4.26-5.64,19.72,6.37Z"/>
      <path class="cls-1" d="M283.01,393.12l1.49,64.14-3.59-.41-29.43-58.16,31.53-5.56Z"/>
      <path class="cls-1" d="M283.01,393.12l-31.53,5.56-.46-67.17,31.98,61.61Z"/>
      <path class="cls-1" d="M310.55,324.94l-.02,41.24-28.19-32.13,28.21-9.11Z"/>
      <path class="cls-1" d="M471.55,249.16l-19.93,10.35-3.9-17.8,23.83,7.45Z"/>
      <path class="cls-1" d="M310.55,324.94l-28.21,9.11,2.66-24.15,25.55,15.04Z"/>
      <path class="cls-1" d="M251.48,398.68l-4.67,31.43-28.6-22.61,33.27-8.82Z"/>
      <path class="cls-1" d="M251.48,398.68l-33.27,8.82,4.13-43,29.14,34.18Z"/>
      <path class="cls-1" d="M211.69,440.43l-27.52-14.48,34.04-18.46-6.52,32.94Z"/>
      <path class="cls-1" d="M218.21,407.49l-34.04,18.46,7.72-31.57,26.32,13.11Z"/>
      <path class="cls-1" d="M447.73,241.72l3.9,17.8-19.72-6.37-1.93-2.57,17.75-8.86Z"/>
      <path class="cls-1" d="M282.34,334.04l.66,59.07-31.98-61.61,31.32,2.53Z"/>
      <path class="cls-1" d="M282.34,334.04l-31.32-2.53-3.38-88.61,34.7,91.14Z"/>
      <path class="cls-1" d="M251.48,398.68l-29.14-34.18,28.68-32.98.46,67.17Z"/>
      <path class="cls-1" d="M222.34,364.49l-4.13,43-26.32-13.11,30.45-29.89Z"/>
      <path class="cls-1" d="M222.34,364.49l-30.45,29.89-7.26-125.52,37.71,95.62Z"/>
      <path class="cls-1" d="M311.96,301.81l-1.41,23.13-25.55-15.04,26.96-8.09Z"/>
      <path class="cls-1" d="M311.96,301.81l-26.96,8.09,3.65-10.27,23.31,2.18Z"/>
      <path class="cls-1" d="M311.96,301.81l-23.31-2.18,23.87-27.46-.56,29.64Z"/>
      <path class="cls-1" d="M312.52,272.17l-23.87,27.46-9.24-134.54,33.11,107.07Z"/>
      <path class="cls-1" d="M311.96,301.81l.56-29.64,13.86,4.5-14.43,25.14Z"/>
      <path class="cls-1" d="M326.39,276.67l-13.86-4.5,22.71-31.61.6,19.71-2.72,4.67-6.73,11.74Z"/>
      <path class="cls-1" d="M335.83,260.26l-.6-19.71,6.58,9.36-5.98,10.35Z"/>
      <path class="cls-1" d="M341.81,249.91l-6.58-9.36,9.82,3.78-3.24,5.58Z"/>
      <path class="cls-1" d="M335.23,240.55l-22.71,31.61-13.08-179.8,35.78,148.19Z"/>
      <path class="cls-1" d="M345.05,244.33l-9.82-3.77-5.56-93.26,24.2,81.79-8.82,15.25Z"/>
      <path class="cls-1" d="M353.87,229.09l-24.2-81.79,22.67,64.63,1.6,4.54,2.74,7.78-2.8,4.83Z"/>
      <path class="cls-1" d="M329.67,147.29l5.56,93.26-35.78-148.19,30.22,54.93Z"/>
      <path class="cls-1" d="M288.65,299.63l-3.65,10.27-9.63-17.28,13.28,7.01Z"/>
      <path class="cls-1" d="M288.65,299.63l-13.28-7.01-7.53-13.5,20.82,20.51Z"/>
      <path class="cls-1" d="M329.67,147.29l-30.22-54.93,1.79-12.8,28.44,67.73Z"/>
      <path class="cls-1" d="M299.45,92.37l13.08,179.8-33.11-107.07,20.03-72.72Z"/>
      <path class="cls-1" d="M282.34,334.04l-34.7-91.14,15.82,28.38.69,1.22,3.69,6.62,7.53,13.5,9.63,17.28-2.66,24.15Z"/>
      <path class="cls-1" d="M191.89,394.39l-7.72,31.57-26.36-13.88,34.08-17.69Z"/>
      <path class="cls-1" d="M191.89,394.39l-34.08,17.69,6.64-43.5,27.44,25.8Z"/>
      <path class="cls-1" d="M447.73,241.72l-17.75,8.86-3.34-4.46-2.01-11.62,23.1,7.22Z"/>
      <path class="cls-1" d="M251.02,331.51l-28.68,32.98-12.45-162.54,41.14,129.56Z"/>
      <path class="cls-1" d="M299.45,92.37l-20.03,72.72L267.29.52l32.15,91.85Z"/>
      <path class="cls-1" d="M135.51,249.23l1.51,89.92-20.38,6.1,3.86-19.66.95-4.83.98-4.96,2.43-12.36,1.47-7.57,3.01-15.29.64-3.24,5.52-28.11Z"/>
      <path class="cls-1" d="M108.3,386.02l-23.27-12.26,31.61-28.52-8.34,40.78Z"/>
      <path class="cls-1" d="M116.65,345.24l-31.61,28.52,11.54-26.84,20.07-1.68Z"/>
      <path class="cls-1" d="M301.23,79.57l-1.79,12.8L267.29.52l33.94,79.05Z"/>
      <path class="cls-1" d="M249.15,94.32L267.29.52l12.12,164.57-30.26-70.78Z"/>
      <path class="cls-1" d="M279.42,165.09l9.24,134.54-20.82-20.51-3.69-6.62,15.28-107.41Z"/>
      <path class="cls-1" d="M249.15,94.32l30.26,70.77-15.28,107.41-.69-1.22-14.3-176.96Z"/>
      <path class="cls-1" d="M249.15,94.32l14.3,176.96-15.82-28.38-7.66-14.69,9.17-133.9Z"/>
      <path class="cls-1" d="M249.15,94.32l-9.17,133.9-2.41-4.63-3.8-71.94,13.47-50.22,1.91-7.11Z"/>
      <path class="cls-1" d="M233.77,151.65l3.8,71.94-10.69-20.49,6.89-51.44Z"/>
      <path class="cls-1" d="M96.58,346.92l-11.54,26.84-22.37-11.78,33.92-15.06Z"/>
      <path class="cls-1" d="M96.58,346.92l-33.92,15.06,12.31-25.83,21.61,10.77Z"/>
      <path class="cls-1" d="M116.65,345.24l-20.07,1.68,23.93-21.34-3.86,19.66Z"/>
      <path class="cls-1" d="M359.39,214.13l4.17,1.29-3.96,5.04-.21-6.33Z"/>
      <path class="cls-1" d="M359.39,214.13l.21,6.33-2.78,3.55-.15.25-2.74-7.78,5.46-2.34Z"/>
      <path class="cls-1" d="M359.39,214.13l-5.46,2.34-1.6-4.54,7.06,2.2Z"/>
      <path class="cls-1" d="M120.51,325.58l-23.93,21.34,10.54-24.56,14.34-1.62-.95,4.83Z"/>
      <path class="cls-1" d="M62.66,361.98l-21.5-11.33,33.81-14.5-12.31,25.83Z"/>
      <path class="cls-1" d="M121.46,320.75l-14.34,1.62,15.32-6.58-.98,4.96Z"/>
      <path class="cls-1" d="M74.97,336.16l-33.81,14.5,12.99-24.87,20.82,10.37Z"/>
      <path class="cls-1" d="M107.12,322.36l-10.54,24.56-21.61-10.77,32.15-13.79Z"/>
      <path class="cls-1" d="M107.12,322.37l-32.15,13.79,11.27-23.67,20.88,9.87Z"/>
      <path class="cls-1" d="M122.44,315.79l-15.32,6.57,9.71-22.55,8.03,3.61-2.43,12.36Z"/>
      <path class="cls-1" d="M54.15,325.79l-12.99,24.87-20.69-10.89,33.69-13.98Z"/>
      <path class="cls-1" d="M116.83,299.82l-9.71,22.55-20.88-9.87,30.59-12.67Z"/>
      <path class="cls-1" d="M86.24,312.49l-11.27,23.67-20.82-10.37,32.09-13.3Z"/>
      <path class="cls-1" d="M86.24,312.49l-32.09,13.3,11.93-22.82,20.15,9.52Z"/>
      <path class="cls-1" d="M54.15,325.79l-33.69,13.98,13.64-23.96,20.05,9.98Z"/>
      <path class="cls-1" d="M124.87,303.43l-8.03-3.61,9.51-3.96-1.47,7.57Z"/>
      <path class="cls-1" d="M126.34,295.86l-9.51,3.96,8.93-20.78,3.59,1.54-3.01,15.29Z"/>
      <path class="cls-1" d="M116.83,299.82l-30.59,12.67,10.38-21.78,20.22,9.11Z"/>
      <path class="cls-1" d="M129.35,280.57l-3.59-1.54,4.23-1.7-.64,3.24Z"/>
      <path class="cls-1" d="M125.76,279.03l-8.93,20.78-20.22-9.11,29.14-11.68Z"/>
      <path class="cls-1" d="M34.1,315.81l31.98-12.84-11.93,22.82-20.05-9.98Z"/>
      <path class="cls-1" d="M86.24,312.49l-20.15-9.52,30.53-12.26-10.38,21.78Z"/>
      <path class="cls-1" d="M34.1,315.81l-13.64,23.96-19.95-10.5,33.58-13.46Z"/>
      <path class="cls-2" d="M174.14,121.28l-23.08,83.68"/>
      <path class="cls-2" d="M108.3,386.03l24.24,12.76"/>
      <path class="cls-2" d="M424.62,234.5l-8.78-2.74"/>
      <path class="cls-2" d="M216.03,182.25l-41.88-60.96"/>
      <path class="cls-2" d="M690.8,357.46l17.79-14.85"/>
      <path class="cls-2" d="M725.48,328.51l-32.3-10.1"/>
      <path class="cls-2" d="M672.08,373.08l18.72-15.62"/>
      <path class="cls-2" d="M652.34,389.57l19.74-16.49"/>
      <path class="cls-2" d="M631.48,407l20.86-17.43"/>
      <path class="cls-2" d="M708.59,342.61l16.9-14.1"/>
      <path class="cls-2" d="M476.72,536.25l30.01-25.06"/>
      <path class="cls-2" d="M693.18,318.4l-31.15-9.73"/>
      <path class="cls-2" d="M406.26,542.88l38.36,20.2"/>
      <path class="cls-2" d="M506.73,511.19l28.17-28.04"/>
      <path class="cls-2" d="M534.9,483.14l26.57-27.9"/>
      <path class="cls-2" d="M586.21,440.56l23.23-15.14"/>
      <path class="cls-2" d="M609.43,425.42l22.04-18.42"/>
      <path class="cls-2" d="M444.61,563.09l32.11-26.84"/>
      <path class="cls-2" d="M662.03,308.67l-30.05-9.4"/>
      <path class="cls-2" d="M369.79,523.67l36.47,19.21"/>
      <path class="cls-2" d="M603.12,285.63l-17.71-17.2"/>
      <path class="cls-2" d="M631.98,299.28l-28.85-13.65"/>
      <path class="cls-2" d="M556.92,241.59l-20.03-12.96"/>
      <path class="cls-2" d="M556.92,241.59l28.5,26.84"/>
      <path class="cls-2" d="M508.29,244.43l28.6-15.81"/>
      <path class="cls-2" d="M347.49,528.9l11.46-10.93"/>
      <path class="cls-2" d="M240.44,455.6l30.1,15.83"/>
      <path class="cls-2" d="M315.61,510.01l-17.39-24"/>
      <path class="cls-2" d="M347.49,528.9l-31.88-18.9"/>
      <path class="cls-2" d="M497.62,257.32l-1.47-.46"/>
      <path class="cls-2" d="M211.69,440.43l28.75,15.16"/>
      <path class="cls-2" d="M246.81,430.1l29.95,26.28"/>
      <path class="cls-2" d="M407.89,221.2l-26.9-27.92"/>
      <path class="cls-2" d="M496.15,256.86l-24.6-7.7"/>
      <path class="cls-2" d="M184.17,425.96l27.52,14.48"/>
      <path class="cls-2" d="M471.55,249.16l-23.83-7.45"/>
      <path class="cls-2" d="M157.81,412.08l26.36,13.88"/>
      <path class="cls-2" d="M132.55,398.78l25.26,13.3"/>
      <path class="cls-2" d="M447.73,241.72l-23.1-7.22"/>
      <path class="cls-2" d="M301.23,79.57l28.44,67.73"/>
      <path class="cls-2" d="M85.04,373.77l23.27,12.26"/>
      <path class="cls-2" d="M301.23,79.57L267.29.52"/>
      <path class="cls-2" d="M267.29.52l-18.14,93.8"/>
      <path class="cls-2" d="M135.51,249.23l15.55-44.26"/>
      <path class="cls-2" d="M233.77,151.65l-6.89,51.44"/>
      <path class="cls-2" d="M62.66,361.98l22.37,11.78"/>
      <path class="cls-2" d="M363.56,215.41l-4.17-1.29"/>
      <path class="cls-2" d="M41.16,350.66l21.5,11.33"/>
      <path class="cls-2" d="M359.39,214.13l-7.06-2.2"/>
      <path class="cls-2" d="M20.47,339.77l20.69,10.89"/>
      <path class="cls-2" d="M66.09,302.97l-31.98,12.84"/>
      <path class="cls-2" d="M125.76,279.03l-29.14,11.68"/>
      <path class="cls-2" d="M129.99,277.33l-4.23,1.7"/>
      <path class="cls-2" d="M34.1,315.81L.52,329.27"/>
      <path class="cls-2" d="M.52,329.27l19.95,10.5"/>
      <path class="cls-2" d="M96.62,290.71l-30.53,12.26"/>
      <path class="cls-2" d="M239.98,228.21l7.66,14.68"/>
      <path class="cls-2" d="M285,309.9l-9.63-17.28"/>
      <path class="cls-2" d="M352.33,211.93l-22.67-64.63"/>
      <path class="cls-2" d="M561.47,455.24l7.87-4.67"/>
      <path class="cls-2" d="M569.33,450.58l16.88-10.02"/>
      <path class="cls-2" d="M490.32,364.27l-1.08-.19"/>
      <path class="cls-2" d="M540.36,388.58l-18.02-14.73"/>
      <path class="cls-2" d="M522.34,373.85l-6.46-5.27"/>
      <path class="cls-2" d="M475.33,367.77l13.91-3.69"/>
      <path class="cls-2" d="M358.95,517.97l10.83,5.7"/>
      <path class="cls-2" d="M367.82,454.37l-6.7,2.41"/>
      <path class="cls-2" d="M328.4,501.89l6.7,3.53"/>
      <path class="cls-2" d="M424.89,406.31l-19.08,25.29"/>
      <path class="cls-2" d="M405.82,431.6l-8.01,10.62"/>
      <path class="cls-2" d="M450.01,378.99l5.46-5.95"/>
      <path class="cls-2" d="M270.53,471.42l27.69,14.58"/>
      <path class="cls-2" d="M298.22,486.01l3.84,2.01"/>
      <path class="cls-2" d="M284.5,457.26l20.71,2.3"/>
      <path class="cls-2" d="M460.08,287.64l-8.1-9.77"/>
      <path class="cls-2" d="M481.54,276.71l6.21-7.49"/>
      <path class="cls-2" d="M356.82,224l2.78-3.55"/>
      <path class="cls-2" d="M311.96,301.81l14.43-25.14"/>
      <path class="cls-2" d="M326.39,276.67l6.73-11.74"/>
      <path class="cls-2" d="M120.51,325.58l-3.86,19.66"/>
      <path class="cls-2" d="M233.77,151.65l13.47-50.22"/>
      <path class="cls-2" d="M247.24,101.43l1.91-7.11"/>
      <path class="cls-2" d="M237.57,223.59l2.41,4.62"/>
      <path class="cls-2" d="M356.67,224.25l-2.74-7.78"/>
      <path class="cls-2" d="M353.93,216.47l-1.6-4.54"/>
      <path class="cls-2" d="M515.89,368.58l-12.83-2.16"/>
      <path class="cls-2" d="M503.06,366.42l-12.74-2.16"/>
      <path class="cls-2" d="M455.47,373.04l12.16-3.24"/>
      <path class="cls-2" d="M467.63,369.8l7.7-2.03"/>
      <path class="cls-2" d="M335.1,505.42l9.22,4.85"/>
      <path class="cls-2" d="M344.32,510.27l14.63,7.7"/>
      <path class="cls-2" d="M397.81,442.22l-.81.31"/>
      <path class="cls-2" d="M397,442.53l-20.36,8.26"/>
      <path class="cls-2" d="M376.64,450.79l-6.39,2.59"/>
      <path class="cls-2" d="M370.24,453.38l-2.43.99"/>
      <path class="cls-2" d="M361.11,456.78l-17.37,6.27"/>
      <path class="cls-2" d="M343.74,463.04l-8.14,2.92"/>
      <path class="cls-2" d="M302.06,488.02l10.13,5.33"/>
      <path class="cls-2" d="M312.19,493.35l16.21,8.55"/>
      <path class="cls-2" d="M424.89,406.31l18.91-20.56"/>
      <path class="cls-2" d="M443.8,385.76l6.21-6.76"/>
      <path class="cls-2" d="M305.22,459.56l5.31,1.12"/>
      <path class="cls-2" d="M310.53,460.68l5.56,1.16"/>
      <path class="cls-2" d="M316.09,461.84l7.55,1.6"/>
      <path class="cls-2" d="M323.65,463.44l11.95,2.53"/>
      <path class="cls-2" d="M276.76,456.39l4.15.46"/>
      <path class="cls-2" d="M280.91,456.84l3.59.41"/>
      <path class="cls-2" d="M441.23,264.91l-5.06-6.12"/>
      <path class="cls-2" d="M487.74,269.22l9.01-10.87"/>
      <path class="cls-2" d="M426.64,246.12l3.34,4.46"/>
      <path class="cls-2" d="M429.98,250.57l1.93,2.57"/>
      <path class="cls-2" d="M431.91,253.15l4.26,5.64"/>
      <path class="cls-2" d="M359.6,220.46l3.96-5.04"/>
      <path class="cls-2" d="M363.56,215.41l17.43-22.13"/>
      <path class="cls-2" d="M345.05,244.33l-3.24,5.58"/>
      <path class="cls-2" d="M341.81,249.91l-5.98,10.35"/>
      <path class="cls-2" d="M335.83,260.26l-2.72,4.67"/>
      <path class="cls-2" d="M121.46,320.75l-.95,4.83"/>
      <path class="cls-2" d="M216.03,182.25l10.86,20.85"/>
      <path class="cls-2" d="M226.88,203.09l10.69,20.49"/>
      <path class="cls-2" d="M275.37,292.62l-7.53-13.5"/>
      <path class="cls-2" d="M267.83,279.12l-3.69-6.62"/>
      <path class="cls-2" d="M264.14,272.5l-.69-1.22"/>
      <path class="cls-2" d="M263.45,271.28l-15.82-28.38"/>
      <path class="cls-2" d="M451.98,277.87l-.52-.62"/>
      <path class="cls-2" d="M451.46,277.25l-10.23-12.34"/>
      <path class="cls-2" d="M496.75,258.35l.87-1.04"/>
      <path class="cls-2" d="M497.62,257.32l10.67-12.88"/>
      <path class="cls-2" d="M419.68,236.88l6.95,9.23"/>
      <path class="cls-2" d="M353.87,229.09l-8.82,15.25"/>
      <path class="cls-2" d="M122.44,315.79l-.98,4.96"/>
      <path class="cls-2" d="M407.89,221.2l7.95,10.56"/>
      <path class="cls-2" d="M415.85,231.76l3.84,5.12"/>
      <path class="cls-2" d="M356.82,224l-.15.25"/>
      <path class="cls-2" d="M356.67,224.25l-2.8,4.83"/>
      <path class="cls-2" d="M129.35,280.57l-3.01,15.29"/>
      <path class="cls-2" d="M126.34,295.86l-1.47,7.57"/>
      <path class="cls-2" d="M124.87,303.43l-2.43,12.36"/>
      <path class="cls-2" d="M135.51,249.23l-5.52,28.11"/>
      <path class="cls-2" d="M129.99,277.33l-.64,3.24"/>
    </g>
  </g>
</svg>