<?xml version="1.0" encoding="UTF-8"?>
<svg id="Camada_1" data-name="Camada 1" xmlns="http://www.w3.org/2000/svg" xmlns:xlink="http://www.w3.org/1999/xlink" viewBox="0 0 398.4 349.82">
  <defs>
    <style>
      .cls-1 {
        stroke: #fff;
        stroke-width: .2px;
      }

      .cls-1, .cls-2 {
        fill: none;
        stroke-linecap: round;
        stroke-linejoin: round;
      }

      .cls-3 {
        fill: url(#Gradiente_sem_nome_15);
        stroke-width: 0px;
      }

      .cls-4 {
        opacity: .6;
      }

      .cls-2 {
        stroke: #ff5c00;
        stroke-width: .5px;
      }
    </style>
    <linearGradient id="Gradiente_sem_nome_15" data-name="Gradiente sem nome 15" x1="297.83" y1="77.38" x2="185.94" y2="335.02" gradientUnits="userSpaceOnUse">
      <stop offset="0" stop-color="#ff5c00" stop-opacity="0"/>
      <stop offset="1" stop-color="#ff5c00"/>
    </linearGradient>
  </defs>
  <polygon class="cls-3" points="282.43 304.87 199.21 349.68 117.82 299.86 237.92 90.22 308.89 132.7 230.11 273.54 282.43 304.87"/>
  <g class="cls-4">
    <path class="cls-1" d="M199.21,349.57c70.11-43.63,140.22-93.15,178.11-169.12,13.65-27.36,22.64-58.21,20.5-89.14-2.14-30.93-16.72-61.78-41.68-77.55-11.54-7.28-24.75-11.15-38.06-12.73-45.09-5.36-92.02,17.11-118.88,56.12"/>
    <path class="cls-1" d="M199.21,62.08C221.19,23.77,259.56,1.67,296.45,6.93c10.9,1.55,21.71,5.36,31.14,12.53,20.4,15.5,32.35,45.85,34.12,76.24,1.77,30.39-5.62,60.74-16.79,87.62-31.01,74.69-88.37,123.37-145.73,166.29"/>
    <path class="cls-1" d="M199.21,67.47c17.09-37.6,46.96-59.29,75.66-54.14,8.46,1.52,16.89,5.26,24.22,12.3,15.89,15.23,25.15,44.97,26.52,74.82,1.37,29.85-4.38,59.6-13.05,85.97-24.12,73.31-68.74,121.08-113.36,163.15"/>
    <path class="cls-1" d="M199.21,74.41c12.21-36.69,33.55-57.84,54.02-52.79,6.05,1.48,12.07,5.12,17.29,11.99,11.34,14.86,17.96,43.9,18.93,72.97.97,29.11-3.11,58.11-9.33,83.88-17.23,71.49-49.1,118.08-80.95,159.14"/>
    <path class="cls-1" d="M199.21,83.27c7.33-35.51,20.14-55.96,32.41-51.11,3.65,1.45,7.23,4.95,10.37,11.59,6.79,14.39,10.77,42.48,11.37,70.64.6,28.16-1.87,56.26-5.59,81.16-10.33,69.2-29.47,114.27-48.57,154.02"/>
    <path class="cls-1" d="M199.21,97.92c2.44-33.55,6.72-52.89,10.8-48.28,1.2,1.35,2.41,4.68,3.45,10.95,2.27,13.58,3.58,40.12,3.78,66.74.2,26.61-.64,53.16-1.87,76.71-3.45,65.39-9.83,108.01-16.19,145.53"/>
    <path class="cls-1" d="M199.21,97.92c-2.44-33.55-6.72-52.89-10.8-48.28-1.2,1.35-2.41,4.68-3.44,10.95-2.27,13.58-3.58,40.12-3.78,66.74-.2,26.61.64,53.16,1.87,76.71,3.45,65.39,9.83,108.01,16.19,145.53"/>
    <path class="cls-1" d="M199.21,83.27c-7.32-35.51-20.14-55.96-32.41-51.11-3.65,1.45-7.22,4.95-10.37,11.59-6.79,14.39-10.77,42.48-11.37,70.64-.6,28.16,1.87,56.26,5.59,81.16,10.34,69.2,29.47,114.27,48.57,154.02"/>
    <path class="cls-1" d="M199.21,74.41c-12.21-36.69-33.55-57.84-54.02-52.79-6.05,1.48-12.07,5.12-17.29,11.99-11.34,14.86-17.96,43.9-18.93,72.97-.97,29.11,3.11,58.11,9.33,83.88,17.23,71.49,49.1,118.08,80.94,159.14"/>
    <path class="cls-1" d="M199.21,67.47c-17.09-37.6-46.96-59.29-75.66-54.14-8.46,1.52-16.89,5.26-24.22,12.3-15.89,15.23-25.15,44.97-26.52,74.82-1.37,29.85,4.38,59.6,13.04,85.97,24.12,73.31,68.74,121.08,113.36,163.15"/>
    <path class="cls-1" d="M199.21,62.08C177.21,23.77,138.84,1.67,101.95,6.93c-10.9,1.55-21.71,5.36-31.14,12.53-20.4,15.5-32.34,45.85-34.12,76.24-1.77,30.39,5.62,60.74,16.79,87.62,31.01,74.69,88.37,123.37,145.74,166.29"/>
    <path class="cls-1" d="M199.21,57.16C172.32,18.18,125.43-4.29,80.34,1.03c-13.31,1.58-26.52,5.46-38.06,12.73C17.32,29.57,2.74,60.43.56,91.35c-2.14,30.93,6.86,61.78,20.5,89.14,37.9,75.97,108,125.49,178.11,169.12"/>
    <path class="cls-1" d="M.4,105.57c.97,26.08,9.16,51.75,20.7,74.89,37.9,75.97,108.01,125.49,178.11,169.12,70.11-43.63,140.22-93.15,178.11-169.12,11.54-23.14,19.73-48.82,20.7-74.89"/>
    <path class="cls-1" d="M398.03,105.57c-.17,4.18-.6,8.36-1.34,12.5-2.81,15.6-9.63,30.76-18.77,44.91-6.52,10.07-14.15,19.67-22.71,29.01-9.37,10.24-19.8,20.18-30.87,29.85-37.5,32.64-82.55,61.95-125.13,91.23-42.55-29.27-87.63-58.58-125.1-91.19-11.07-9.64-21.51-19.61-30.87-29.85-8.53-9.33-16.16-18.93-22.71-29.01-9.13-14.15-15.99-29.28-18.76-44.91-.74-4.14-1.2-8.32-1.34-12.5"/>
    <path class="cls-1" d="M398.03,105.57c-.1,2.9-.5,5.79-1.17,8.69-2.58,10.81-9.2,21.22-18.36,31.23-6.56,7.11-14.32,13.98-23.15,21.06-9.7,7.75-20.5,15.73-31.91,23.75-38.57,27.22-83.92,55.55-124.23,86.21-40.3-30.66-85.66-58.99-124.23-86.21-11.41-8.05-22.21-16.04-31.91-23.75-8.83-7.04-16.59-13.95-23.15-21.06-9.16-9.97-15.79-20.42-18.36-31.23-.67-2.86-1.07-5.76-1.17-8.66"/>
    <path class="cls-1" d="M398.03,105.57c-.07,1.65-.4,3.27-1.04,4.85-2.34,6.03-8.76,11.76-17.96,17.55-6.56,4.14-14.48,8.32-23.58,13.07-10,5.22-21.21,11.25-32.95,17.69-39.67,21.8-85.26,49.15-123.32,81.19-38.07-32.04-83.66-59.39-123.33-81.19-11.71-6.43-22.95-12.43-32.91-17.69-9.1-4.78-17.03-8.96-23.58-13.11-9.2-5.79-15.59-11.52-17.96-17.55-.64-1.58-.97-3.2-1.04-4.85"/>
    <path class="cls-1" d="M398.03,105.57c0,.37-.3.71-.87,1.04-2.14,1.21-8.36,2.26-17.53,3.87-6.59,1.15-14.65,2.63-24.02,5.12-10.3,2.73-21.91,6.77-33.95,11.59-40.74,16.37-86.6,42.75-122.46,76.17-35.82-33.42-81.68-59.8-122.45-76.17-12.04-4.85-23.65-8.86-33.95-11.59-9.37-2.49-17.43-3.97-24.02-5.12-9.16-1.62-15.42-2.63-17.53-3.87-.57-.34-.84-.67-.87-1.04"/>
    <path class="cls-1" d="M398.03,105.57c.03-.91-.2-1.85-.7-2.8-1.91-3.57-7.96-7.28-17.13-9.8-6.62-1.82-14.82-3.07-24.45-2.83-10.6.24-22.64,2.29-34.99,5.52-41.84,10.95-87.97,36.35-121.55,71.15-33.58-34.83-79.71-60.23-121.55-71.15-12.34-3.23-24.38-5.29-34.99-5.52-9.63-.2-17.86,1.01-24.48,2.83-9.16,2.53-15.22,6.23-17.13,9.8-.5.94-.74,1.89-.7,2.8"/>
    <path class="cls-1" d="M398.03,105.57c.07-2.19-.07-4.38-.53-6.6-1.71-8.35-7.56-16.81-16.72-23.48-6.66-4.82-14.98-8.73-24.92-10.81-10.9-2.29-23.35-2.19-36.02-.57-42.91,5.52-89.31,29.95-120.65,66.13-31.34-36.21-77.74-60.64-120.65-66.13-12.68-1.62-25.09-1.72-36.02.57-9.93,2.06-18.26,5.96-24.92,10.81-9.16,6.67-15.02,15.13-16.72,23.48-.43,2.22-.6,4.41-.54,6.6"/>
    <path class="cls-1" d="M398.03,105.57c.13-3.47,0-6.94-.37-10.41-1.47-13.14-7.09-26.34-16.32-37.16-6.66-7.85-15.15-14.42-25.35-18.76-11.24-4.78-24.05-6.67-37.03-6.64-44.02.07-90.65,23.55-119.78,61.14-29.1-37.6-75.76-61.04-119.78-61.11-12.98,0-25.82,1.85-37.03,6.67-10.2,4.35-18.7,10.92-25.35,18.76C7.86,68.81,2.2,82.02.73,95.16c-.4,3.47-.5,6.97-.37,10.41"/>
    <path class="cls-1" d="M398.03,105.57c.17-4.75.13-9.5-.2-14.25-2.14-30.93-16.72-61.78-41.68-77.55-11.54-7.28-24.75-11.15-38.06-12.73-45.09-5.36-92.02,17.11-118.88,56.12C172.32,18.18,125.43-4.29,80.34,1.03c-13.31,1.58-26.52,5.46-38.06,12.73C17.32,29.57,2.74,60.43.56,91.35c-.33,4.75-.37,9.5-.2,14.25"/>
    <path class="cls-1" d="M199.21,97.92v251.65"/>
    <path class="cls-2" d="M199.21,349.57c-70.11-43.63-140.22-93.15-178.11-169.12C7.45,153.1-1.58,122.24.56,91.35,2.74,60.43,17.32,29.57,42.27,13.77c11.54-7.28,24.75-11.15,38.06-12.73,45.09-5.36,92.02,17.11,118.88,56.12C226.07,18.18,272.97-4.29,318.09,1.03c13.31,1.58,26.52,5.46,38.06,12.73,24.95,15.77,39.54,46.62,41.68,77.55,2.14,30.93-6.86,61.78-20.5,89.14-37.9,75.97-108.01,125.49-178.11,169.12Z"/>
  </g>
</svg>