<svg width="16" height="15" viewBox="0 0 16 15" fill="none" xmlns="http://www.w3.org/2000/svg">
<path d="M7.95649 14.5834C6.98843 14.5834 6.0735 14.3973 5.2117 14.0252C4.34989 13.6531 3.5974 13.1454 2.95424 12.5023C2.31107 11.8591 1.80343 11.1066 1.43132 10.2448C1.05921 9.38301 0.873154 8.46808 0.873154 7.50002C0.873154 6.52016 1.05921 5.6024 1.43132 4.74673C1.80343 3.89106 2.31107 3.14141 2.95424 2.49777C3.5974 1.85413 4.34989 1.34649 5.2117 0.974854C6.0735 0.603215 6.98843 0.417159 7.95649 0.416687C8.93635 0.416687 9.85435 0.602743 10.7105 0.974854C11.5666 1.34696 12.316 1.8546 12.9587 2.49777C13.6014 3.14094 14.1091 3.89059 14.4817 4.74673C14.8542 5.60287 15.0403 6.52063 15.0398 7.50002C15.0398 8.46808 14.8538 9.38301 14.4817 10.2448C14.1095 11.1066 13.6019 11.8593 12.9587 12.503C12.3156 13.1466 11.5659 13.6543 10.7098 14.0259C9.85364 14.3975 8.93588 14.5834 7.95649 14.5834ZM7.95649 13.1313C8.26343 12.7063 8.52906 12.2636 8.75336 11.8031C8.97767 11.3427 9.16065 10.8528 9.30232 10.3334H6.61065C6.75232 10.8528 6.93531 11.3427 7.15961 11.8031C7.38392 12.2636 7.64954 12.7063 7.95649 13.1313ZM6.11482 12.8479C5.90232 12.4584 5.7165 12.0539 5.55736 11.6346C5.39822 11.2152 5.26529 10.7815 5.15857 10.3334H3.06899C3.41135 10.9236 3.83942 11.4372 4.3532 11.874C4.86697 12.3108 5.45418 12.6354 6.11482 12.8479ZM9.79815 12.8479C10.4593 12.6354 11.0467 12.3108 11.5605 11.874C12.0743 11.4372 12.5021 10.9236 12.844 10.3334H10.7544C10.6482 10.782 10.5155 11.2159 10.3563 11.6353C10.1972 12.0546 10.0111 12.4588 9.79815 12.8479ZM2.4669 8.91669H4.87524C4.83982 8.68058 4.81338 8.44753 4.7959 8.21756C4.77843 7.98759 4.76946 7.74841 4.76899 7.50002C4.76852 7.25163 4.77749 7.01269 4.7959 6.78319C4.81432 6.55369 4.84076 6.32041 4.87524 6.08335H2.4669C2.40788 6.31947 2.36372 6.55274 2.33445 6.78319C2.30517 7.01363 2.29029 7.25258 2.28982 7.50002C2.28935 7.74747 2.30422 7.98665 2.33445 8.21756C2.36467 8.44848 2.40882 8.68152 2.4669 8.91669ZM6.2919 8.91669H9.62107C9.65649 8.68058 9.68317 8.44753 9.70111 8.21756C9.71906 7.98759 9.72779 7.74841 9.72732 7.50002C9.72685 7.25163 9.71788 7.01269 9.7004 6.78319C9.68293 6.55369 9.65649 6.32041 9.62107 6.08335H6.2919C6.25649 6.31947 6.23004 6.55274 6.21257 6.78319C6.1951 7.01363 6.18613 7.25258 6.18565 7.50002C6.18518 7.74747 6.19415 7.98665 6.21257 8.21756C6.23099 8.44848 6.25743 8.68152 6.2919 8.91669ZM11.0377 8.91669H13.4461C13.5051 8.68058 13.5495 8.44753 13.5792 8.21756C13.609 7.98759 13.6236 7.74841 13.6232 7.50002C13.6227 7.25163 13.608 7.01269 13.5792 6.78319C13.5504 6.55369 13.506 6.32041 13.4461 6.08335H11.0377C11.0732 6.31947 11.0998 6.55274 11.1178 6.78319C11.1357 7.01363 11.1445 7.25258 11.144 7.50002C11.1435 7.74747 11.1345 7.98665 11.1171 8.21756C11.0996 8.44848 11.0732 8.68152 11.0377 8.91669ZM10.7544 4.66669H12.844C12.5016 4.07641 12.0738 3.56287 11.5605 3.12606C11.0472 2.68926 10.4597 2.3646 9.79815 2.1521C10.0107 2.54169 10.1967 2.94615 10.3563 3.36548C10.5159 3.78481 10.6486 4.21855 10.7544 4.66669ZM6.61065 4.66669H9.30232C9.16065 4.14724 8.97767 3.65731 8.75336 3.1969C8.52906 2.73648 8.26343 2.29377 7.95649 1.86877C7.64954 2.29377 7.38392 2.73648 7.15961 3.1969C6.93531 3.65731 6.75232 4.14724 6.61065 4.66669ZM3.06899 4.66669H5.15857C5.26482 4.21808 5.39775 3.7841 5.55736 3.36477C5.71697 2.94544 5.90279 2.54121 6.11482 2.1521C5.45371 2.3646 4.86627 2.68926 4.35249 3.12606C3.83871 3.56287 3.41088 4.07641 3.06899 4.66669Z" fill="white"/>
</svg>
