<svg width="138" height="23" viewBox="0 0 138 23" fill="none" xmlns="http://www.w3.org/2000/svg">
<path fill-rule="evenodd" clip-rule="evenodd" d="M115.405 9.48363H105.697L103.966 6.39771H121.252V22.405H117.96V11.326L108.288 18.6423V19.2813H116.311L114.696 22.2468H107.019C106.015 22.2468 105.201 21.3933 105.201 20.3404V18.0655C105.201 17.448 105.486 16.8687 105.967 16.5111L115.405 9.48363Z" fill="white"/>
<path d="M32.5678 6.30949H36.5612V19.2255H45.2135V22.2272H32.5678V6.30949Z" fill="white"/>
<path d="M55.0195 22.5C53.2282 22.5 51.6095 22.1438 50.1633 21.4313C48.7336 20.7188 47.6079 19.741 46.7862 18.4979C45.9809 17.2396 45.5783 15.8298 45.5783 14.2683C45.5783 12.7069 45.9809 11.3046 46.7862 10.0615C47.6079 8.80326 48.7336 7.81788 50.1633 7.10538C51.6095 6.39287 53.2282 6.03662 55.0195 6.03662C56.8107 6.03662 58.4212 6.39287 59.851 7.10538C61.2807 7.81788 62.4064 8.80326 63.2281 10.0615C64.0498 11.3046 64.4606 12.7069 64.4606 14.2683C64.4606 15.8298 64.0498 17.2396 63.2281 18.4979C62.4064 19.741 61.2807 20.7188 59.851 21.4313C58.4212 22.1438 56.8107 22.5 55.0195 22.5ZM55.0195 19.362C56.0383 19.362 56.9586 19.1497 57.7803 18.7253C58.602 18.2856 59.2429 17.6793 59.7031 16.9061C60.1796 16.133 60.4179 15.2537 60.4179 14.2683C60.4179 13.2829 60.1796 12.4037 59.7031 11.6305C59.2429 10.8574 58.602 10.2586 57.7803 9.83412C56.9586 9.39449 56.0383 9.17467 55.0195 9.17467C54.0006 9.17467 53.0803 9.39449 52.2586 9.83412C51.4369 10.2586 50.7878 10.8574 50.3112 11.6305C49.8511 12.4037 49.621 13.2829 49.621 14.2683C49.621 15.2537 49.8511 16.133 50.3112 16.9061C50.7878 17.6793 51.4369 18.2856 52.2586 18.7253C53.0803 19.1497 54.0006 19.362 55.0195 19.362Z" fill="white"/>
<path d="M75.3254 22.5C73.5341 22.5 71.9154 22.1438 70.4692 21.4313C69.0395 20.7188 67.9138 19.741 67.0921 18.4979C66.2868 17.2396 65.8842 15.8298 65.8842 14.2683C65.8842 12.7069 66.2868 11.3046 67.0921 10.0615C67.9138 8.80326 69.0395 7.81788 70.4692 7.10538C71.9154 6.39287 73.5341 6.03662 75.3254 6.03662C77.1166 6.03662 78.7271 6.39287 80.1569 7.10538C81.5866 7.81788 82.7123 8.80326 83.534 10.0615C84.3557 11.3046 84.7665 12.7069 84.7665 14.2683C84.7665 15.8298 84.3557 17.2396 83.534 18.4979C82.7123 19.741 81.5866 20.7188 80.1569 21.4313C78.7271 22.1438 77.1166 22.5 75.3254 22.5ZM75.3254 19.362C76.3442 19.362 77.2645 19.1497 78.0862 18.7253C78.9079 18.2856 79.5488 17.6793 80.009 16.9061C80.4855 16.133 80.7238 15.2537 80.7238 14.2683C80.7238 13.2829 80.4855 12.4037 80.009 11.6305C79.5488 10.8574 78.9079 10.2586 78.0862 9.83412C77.2645 9.39449 76.3442 9.17467 75.3254 9.17467C74.3065 9.17467 73.3862 9.39449 72.5645 9.83412C71.7428 10.2586 71.0937 10.8574 70.6171 11.6305C70.157 12.4037 69.9269 13.2829 69.9269 14.2683C69.9269 15.2537 70.157 16.133 70.6171 16.9061C71.0937 17.6793 71.7428 18.2856 72.5645 18.7253C73.3862 19.1497 74.3065 19.362 75.3254 19.362Z" fill="white"/>
<path d="M93.5606 15.9738L91.2435 18.2023V22.2272H87.2747V6.30949H91.2435V13.7453L98.8851 6.30949H103.322L96.1736 13.4042L103.741 22.2272H99.0823L93.5606 15.9738Z" fill="white"/>
<path d="M128.156 9.46042H122.444V6.4588H138V9.46042H132.288V22.3765H128.156V9.46042Z" fill="white"/>
<path d="M19.4758 5.25363L15.2401 7.72308L20.4831 9.833L20.0094 15.2757L24.2452 12.8063L25.2734 7.48763L19.4758 5.25363Z" fill="white"/>
<path fill-rule="evenodd" clip-rule="evenodd" d="M10.391 0.5L0 17.6467L7.00266 21.7706L14.2312 18.0808L9.71337 15.4762L16.716 3.97275L10.391 0.5ZM21.2173 15.2512L14.6545 18.0637L22.109 22.4046L25.4861 16.4358L21.2173 15.2512Z" fill="white"/>
</svg>
