<svg width="43" height="43" viewBox="0 0 43 43" fill="none" xmlns="http://www.w3.org/2000/svg">
<path d="M36.9902 43H6.01466C4.41947 43 2.88962 42.3663 1.76165 41.2383C0.633685 40.1104 0 38.5805 0 36.9853V6.01466C0 4.41947 0.633685 2.88962 1.76165 1.76165C2.88962 0.633685 4.41947 0 6.01466 0H36.9902C38.5853 0 40.1152 0.633685 41.2432 1.76165C42.3711 2.88962 43.0048 4.41947 43.0048 6.01466V36.9853C43.0048 38.5805 42.3711 40.1104 41.2432 41.2383C40.1152 42.3663 38.5853 43 36.9902 43ZM6.01466 2.40586C5.05755 2.40586 4.13964 2.78607 3.46286 3.46286C2.78607 4.13964 2.40586 5.05755 2.40586 6.01466V36.9853C2.40586 37.9425 2.78607 38.8604 3.46286 39.5371C4.13964 40.2139 5.05755 40.5941 6.01466 40.5941H36.9902C37.9473 40.5941 38.8652 40.2139 39.542 39.5371C40.2187 38.8604 40.5989 37.9425 40.5989 36.9853V6.01466C40.5989 5.05755 40.2187 4.13964 39.542 3.46286C38.8652 2.78607 37.9473 2.40586 36.9902 2.40586H6.01466Z" fill="#FF5C00"/>
<path d="M21.5017 23.9069C22.8305 23.9069 23.9076 22.8298 23.9076 21.501C23.9076 20.1723 22.8305 19.0952 21.5017 19.0952C20.173 19.0952 19.0959 20.1723 19.0959 21.501C19.0959 22.8298 20.173 23.9069 21.5017 23.9069Z" fill="#FF5C00"/>
<path d="M31.1248 23.9069C32.4535 23.9069 33.5307 22.8298 33.5307 21.501C33.5307 20.1723 32.4535 19.0952 31.1248 19.0952C29.7961 19.0952 28.7189 20.1723 28.7189 21.501C28.7189 22.8298 29.7961 23.9069 31.1248 23.9069Z" fill="#FF5C00"/>
<path d="M11.8783 23.9069C13.207 23.9069 14.2841 22.8298 14.2841 21.501C14.2841 20.1723 13.207 19.0952 11.8783 19.0952C10.5496 19.0952 9.47241 20.1723 9.47241 21.501C9.47241 22.8298 10.5496 23.9069 11.8783 23.9069Z" fill="#FF5C00"/>
</svg>
