<svg width="21" height="22" viewBox="0 0 21 22" fill="none" xmlns="http://www.w3.org/2000/svg">
<path d="M10.453 0.729492C16.1273 0.729492 20.727 5.32915 20.727 11.0035C20.727 16.6778 16.1273 21.2774 10.453 21.2774C8.63739 21.2804 6.85371 20.7999 5.28523 19.8853L0.183171 21.2774L1.57221 16.1733C0.656896 14.6044 0.176028 12.8199 0.179061 11.0035C0.179061 5.32915 4.77872 0.729492 10.453 0.729492ZM6.95166 6.1747L6.74618 6.18292C6.61316 6.19102 6.48315 6.22597 6.36399 6.28566C6.25254 6.34877 6.1508 6.42767 6.06194 6.5199C5.93865 6.636 5.86879 6.73668 5.79379 6.83429C5.41377 7.32837 5.20917 7.93495 5.21228 8.55826C5.21433 9.06168 5.34584 9.55175 5.55132 10.01C5.97153 10.9367 6.66296 11.9178 7.57529 12.8271C7.79516 13.0459 8.01091 13.2658 8.2431 13.4702C9.37672 14.4683 10.7276 15.1881 12.1883 15.5723L12.7719 15.6617C12.9619 15.672 13.152 15.6576 13.3431 15.6483C13.6423 15.6329 13.9345 15.5519 14.1989 15.411C14.3335 15.3417 14.4648 15.2663 14.5924 15.185C14.5924 15.185 14.6366 15.1562 14.7208 15.0925C14.8595 14.9898 14.9448 14.9168 15.0599 14.7966C15.1452 14.7083 15.2191 14.6045 15.2756 14.4863C15.3558 14.3189 15.4359 13.9994 15.4688 13.7333C15.4934 13.5298 15.4863 13.4189 15.4832 13.35C15.4791 13.2401 15.3876 13.1261 15.288 13.0778L14.69 12.8096C14.69 12.8096 13.7962 12.4202 13.2496 12.1716C13.1924 12.1466 13.1311 12.1324 13.0688 12.1295C12.9985 12.1223 12.9275 12.1302 12.8605 12.1527C12.7935 12.1752 12.7321 12.2118 12.6804 12.26C12.6753 12.2579 12.6065 12.3165 11.8636 13.2165C11.821 13.2738 11.7623 13.3171 11.695 13.3409C11.6276 13.3646 11.5547 13.3678 11.4856 13.35C11.4186 13.3321 11.3531 13.3094 11.2893 13.2822C11.1619 13.2288 11.1178 13.2083 11.0304 13.1713C10.4408 12.914 9.89484 12.5663 9.41228 12.1408C9.28283 12.0278 9.16262 11.9045 9.03934 11.7853C8.63514 11.3982 8.28289 10.9603 7.99139 10.4826L7.93077 10.385C7.88723 10.3194 7.85203 10.2486 7.82598 10.1744C7.78694 10.0233 7.88865 9.9021 7.88865 9.9021C7.88865 9.9021 8.13831 9.62881 8.2544 9.48086C8.36742 9.33703 8.46297 9.1973 8.52461 9.09764C8.64584 8.90244 8.68386 8.7021 8.62016 8.54696C8.33249 7.84422 8.03454 7.14456 7.72838 6.45004C7.66776 6.31237 7.48797 6.21374 7.32461 6.19422C7.26913 6.18805 7.21365 6.18189 7.15817 6.17778C7.0202 6.17093 6.88194 6.1723 6.74413 6.18189L6.95166 6.1747Z" fill="white"/>
</svg>
