<svg width="51" height="51" viewBox="0 0 51 51" fill="none" xmlns="http://www.w3.org/2000/svg">
<path d="M37.4 22.04C37.7 20.05 37.08 18.47 35.87 17.24C34.9 16.26 33.57 15.53 32.11 14.95L33.02 11.33L33.26 10.36L32.29 10.12L29.55 9.43001L28.58 9.19001L28.34 10.16L27.49 13.59C27.4 13.57 27.31 13.55 27.22 13.53L28.07 10.09L28.31 9.12001L27.34 8.88001L24.59 8.19001L23.62 7.95001L23.38 8.92001L22.49 12.47C22.23 12.41 21.97 12.35 21.71 12.28L17.93 11.34L16.96 11.1L16.72 12.07L15.99 15L15.75 15.97L16.72 16.21L18.7 16.7C19.06 16.79 19.15 16.92 19.17 16.95C19.2 17 19.22 17.07 19.23 17.19L16.21 29.31C16.21 29.31 16.19 29.34 16.19 29.35C16.17 29.35 16.15 29.35 16.12 29.34L14.12 28.84L13.3 28.64L12.96 29.41L11.58 32.56L11.11 33.64L12.26 33.93L15.81 34.81H15.82L16.79 35.07L15.9 38.67L15.66 39.64L16.63 39.88L19.38 40.56L20.35 40.8L20.59 39.83L21.47 36.3C21.56 36.32 21.65 36.35 21.73 36.37L20.9 39.9L20.67 40.86L21.63 41.1L24.38 41.79L25.35 42.03L25.59 41.06L26.5 37.4C28.52 37.72 30.43 37.79 32.08 37.28C34.06 36.67 35.53 35.27 36.37 32.89C37.02 31.03 37.05 29.41 36.45 28.03C36.12 27.27 35.61 26.64 34.99 26.1C35.32 25.89 35.62 25.63 35.91 25.34C36.68 24.52 37.19 23.41 37.4 22.03V22.04ZM29.18 30.44C29.05 30.97 28.76 31.26 28.34 31.45C27.86 31.66 27.19 31.74 26.37 31.69C25.17 31.63 23.91 31.32 22.93 31.07L23.95 26.95C24.95 27.18 26.2 27.48 27.31 27.98C28.05 28.32 28.61 28.7 28.92 29.1C29.2 29.46 29.33 29.87 29.18 30.44ZM30.03 21.6L29.99 21.75C29.86 22.14 29.64 22.36 29.34 22.5C28.97 22.68 28.44 22.76 27.77 22.74C26.85 22.71 25.89 22.49 25.1 22.29L25.99 18.7C26.79 18.88 27.74 19.11 28.58 19.51C29.18 19.79 29.6 20.11 29.84 20.44C30.05 20.73 30.15 21.08 30.02 21.62L30.03 21.6Z" stroke="#AC05C7" stroke-width="2"/>
<path d="M25.5 50C39.031 50 50 39.031 50 25.5C50 11.969 39.031 1 25.5 1C11.969 1 1 11.969 1 25.5C1 39.031 11.969 50 25.5 50Z" stroke="#AC05C7" stroke-width="2"/>
</svg>
